<svg width="53" height="48" viewBox="0 0 53 48" fill="none" xmlns="http://www.w3.org/2000/svg">
<path d="M44.4221 0.162598H28.8898V23.0682L36.759 15.2005C37.2108 14.7713 37.8124 14.5356 38.4355 14.5436C39.0586 14.5515 39.654 14.8026 40.0946 15.2433C40.5353 15.6839 40.7863 16.2792 40.7943 16.9023C40.8023 17.5255 40.5665 18.127 40.1373 18.5788L28.1894 30.5267C27.7413 30.9745 27.1337 31.2261 26.5003 31.2261C25.8668 31.2261 25.2592 30.9745 24.8111 30.5267L12.8632 18.5788C12.434 18.127 12.1982 17.5255 12.2062 16.9023C12.2142 16.2792 12.4653 15.6839 12.9059 15.2433C13.3466 14.8026 13.9419 14.5515 14.565 14.5436C15.1881 14.5356 15.7897 14.7713 16.2415 15.2005L24.1107 23.0682V0.162598H8.57839C6.36096 0.16497 4.23504 1.04689 2.66709 2.61484C1.09913 4.1828 0.217216 6.30872 0.214844 8.52614V39.5907C0.217216 41.8081 1.09913 43.9341 2.66709 45.502C4.23504 47.07 6.36096 47.9519 8.57839 47.9543H44.4221C46.6396 47.9519 48.7655 47.07 50.3334 45.502C51.9014 43.9341 52.7833 41.8081 52.7857 39.5907V8.52614C52.7833 6.30872 51.9014 4.1828 50.3334 2.61484C48.7655 1.04689 46.6396 0.16497 44.4221 0.162598Z" fill="#E2DFDF"/>
</svg>
