<svg width="1025" height="93" viewBox="0 0 1025 93" fill="none" xmlns="http://www.w3.org/2000/svg">
<line x1="47" y1="19.5" x2="212" y2="19.5" stroke="#152A61" stroke-width="3"/>
<line x1="237" y1="19.5" x2="402" y2="19.5" stroke="#152A61" stroke-width="3"/>
<line x1="424" y1="19.5" x2="589" y2="19.5" stroke="#152A61" stroke-width="3"/>
<line x1="612" y1="19.5" x2="777" y2="19.5" stroke="#152A61" stroke-width="3"/>
<line x1="800" y1="19.5" x2="965" y2="19.5" stroke="#152A61" stroke-width="3"/>
<path d="M10.7236 83.168C9.17432 83.168 8.00765 82.7573 7.22365 81.936C6.43965 81.1053 6.04765 79.8593 6.04765 78.198C6.04765 76.5367 6.43965 75.2953 7.22365 74.474C8.00765 73.6433 9.17432 73.228 10.7236 73.228C11.9743 73.228 12.973 73.5407 13.7196 74.166C14.4756 74.782 14.8536 75.6827 14.8536 76.868H13.4956C13.4956 76.0467 13.2483 75.426 12.7536 75.006C12.2683 74.5767 11.5916 74.362 10.7236 74.362C9.59432 74.362 8.76365 74.6607 8.23165 75.258C7.69965 75.8553 7.42898 76.826 7.41965 78.17V78.198C7.41965 79.5513 7.68565 80.5313 8.21765 81.138C8.74965 81.7353 9.58498 82.034 10.7236 82.034C11.6103 82.034 12.301 81.824 12.7956 81.404C13.2996 80.984 13.5516 80.368 13.5516 79.556H14.8536C14.8536 80.7507 14.4803 81.6513 13.7336 82.258C12.987 82.8647 11.9836 83.168 10.7236 83.168ZM16.4312 72.878H17.6632V76.462H17.7612C18.2745 75.7993 19.0492 75.468 20.0852 75.468C21.6158 75.468 22.3812 76.3033 22.3812 77.974V83H21.1492V78.058C21.1492 77.47 21.0185 77.064 20.7572 76.84C20.4958 76.6067 20.1178 76.49 19.6232 76.49C19.2685 76.49 18.9418 76.5787 18.6432 76.756C18.3445 76.924 18.1065 77.1713 17.9292 77.498C17.7518 77.8247 17.6632 78.2073 17.6632 78.646V83H16.4312V72.878ZM27.1645 83.168C26.0351 83.168 25.1858 82.8553 24.6165 82.23C24.0471 81.5953 23.7625 80.6247 23.7625 79.318C23.7625 78.0113 24.0471 77.0453 24.6165 76.42C25.1858 75.7853 26.0351 75.468 27.1645 75.468C28.2938 75.468 29.1431 75.7853 29.7125 76.42C30.2818 77.0453 30.5665 78.0113 30.5665 79.318C30.5665 80.6247 30.2818 81.5953 29.7125 82.23C29.1431 82.8553 28.2938 83.168 27.1645 83.168ZM27.1645 82.146C27.9111 82.146 28.4525 81.9313 28.7885 81.502C29.1245 81.0633 29.2925 80.354 29.2925 79.374V79.262C29.2925 78.282 29.1245 77.5773 28.7885 77.148C28.4525 76.7093 27.9111 76.49 27.1645 76.49C26.4178 76.49 25.8765 76.7093 25.5405 77.148C25.2045 77.5773 25.0365 78.282 25.0365 79.262V79.374C25.0365 80.354 25.2045 81.0633 25.5405 81.502C25.8765 81.9313 26.4178 82.146 27.1645 82.146ZM34.9438 83.168C33.8144 83.168 32.9651 82.8553 32.3958 82.23C31.8264 81.5953 31.5418 80.6247 31.5418 79.318C31.5418 78.0113 31.8264 77.0453 32.3958 76.42C32.9651 75.7853 33.8144 75.468 34.9438 75.468C36.0731 75.468 36.9224 75.7853 37.4918 76.42C38.0611 77.0453 38.3458 78.0113 38.3458 79.318C38.3458 80.6247 38.0611 81.5953 37.4918 82.23C36.9224 82.8553 36.0731 83.168 34.9438 83.168ZM34.9438 82.146C35.6904 82.146 36.2318 81.9313 36.5678 81.502C36.9038 81.0633 37.0718 80.354 37.0718 79.374V79.262C37.0718 78.282 36.9038 77.5773 36.5678 77.148C36.2318 76.7093 35.6904 76.49 34.9438 76.49C34.1971 76.49 33.6558 76.7093 33.3198 77.148C32.9838 77.5773 32.8158 78.282 32.8158 79.262V79.374C32.8158 80.354 32.9838 81.0633 33.3198 81.502C33.6558 81.9313 34.1971 82.146 34.9438 82.146ZM42.2891 83.168C41.6077 83.168 41.0384 83.07 40.5811 82.874C40.1331 82.6687 39.8017 82.4027 39.5871 82.076C39.3724 81.7493 39.2651 81.3947 39.2651 81.012C39.2651 80.9 39.2651 80.8253 39.2651 80.788C39.2744 80.7413 39.2791 80.7133 39.2791 80.704H40.4971V80.844C40.4971 81.2827 40.6697 81.614 41.0151 81.838C41.3604 82.0527 41.8084 82.16 42.3591 82.16C42.8351 82.16 43.2271 82.0667 43.5351 81.88C43.8524 81.684 44.0111 81.4133 44.0111 81.068C44.0111 80.7973 43.9224 80.578 43.7451 80.41C43.5677 80.2327 43.3484 80.0973 43.0871 80.004C42.8257 79.9013 42.4711 79.794 42.0231 79.682C41.4817 79.542 41.0384 79.402 40.6931 79.262C40.3571 79.122 40.0677 78.9167 39.8251 78.646C39.5917 78.366 39.4751 78.0067 39.4751 77.568C39.4751 76.924 39.7364 76.4153 40.2591 76.042C40.7911 75.6593 41.5051 75.468 42.4011 75.468C42.9611 75.468 43.4464 75.5613 43.8571 75.748C44.2677 75.9253 44.5757 76.168 44.7811 76.476C44.9957 76.7747 45.1031 77.1107 45.1031 77.484L45.0891 77.75H43.8851V77.624C43.8851 77.2973 43.7544 77.0267 43.4931 76.812C43.2411 76.5973 42.8304 76.49 42.2611 76.49C41.7011 76.49 41.3091 76.5927 41.0851 76.798C40.8611 76.994 40.7491 77.2227 40.7491 77.484C40.7491 77.6987 40.8284 77.876 40.9871 78.016C41.1457 78.156 41.3417 78.268 41.5751 78.352C41.8084 78.436 42.1351 78.5293 42.5551 78.632C43.1337 78.7813 43.6051 78.9307 43.9691 79.08C44.3331 79.22 44.6411 79.4393 44.8931 79.738C45.1544 80.0273 45.2851 80.4147 45.2851 80.9C45.2851 81.656 45.0097 82.2253 44.4591 82.608C43.9177 82.9813 43.1944 83.168 42.2891 83.168ZM49.8911 83.168C48.7057 83.168 47.8237 82.8553 47.2451 82.23C46.6664 81.6047 46.3771 80.634 46.3771 79.318C46.3771 78.002 46.6664 77.0313 47.2451 76.406C47.8237 75.7807 48.7057 75.468 49.8911 75.468C50.9551 75.468 51.7484 75.7527 52.2711 76.322C52.8031 76.882 53.0691 77.7873 53.0691 79.038V79.654H47.6511C47.6977 80.5033 47.8984 81.1333 48.2531 81.544C48.6171 81.9453 49.1631 82.146 49.8911 82.146C50.4791 82.146 50.9551 82.0107 51.3191 81.74C51.6831 81.4693 51.8651 81.054 51.8651 80.494H53.0691C53.0691 81.3527 52.7704 82.0153 52.1731 82.482C51.5851 82.9393 50.8244 83.168 49.8911 83.168ZM51.7811 78.632C51.7811 77.204 51.1511 76.49 49.8911 76.49C49.1911 76.49 48.6637 76.658 48.3091 76.994C47.9637 77.33 47.7537 77.876 47.6791 78.632H51.7811Z" fill="white"/>
<circle cx="30" cy="19" r="13" fill="#B20000"/>
<circle cx="30" cy="19" r="17.5" stroke="#B20000" stroke-width="3"/>
<path d="M26.8004 22.432H29.0544V16.72H26.7864V15.53C27.2064 15.4833 27.7197 15.3527 28.3264 15.138C28.9424 14.9233 29.493 14.676 29.9784 14.396H30.9724V22.432H33.0304V24H26.8004V22.432Z" fill="white"/>
<path d="M181.268 73.396H185.944C186.905 73.396 187.643 73.662 188.156 74.194C188.669 74.726 188.926 75.4353 188.926 76.322C188.926 77.2273 188.655 77.9553 188.114 78.506C187.582 79.0473 186.859 79.318 185.944 79.318H182.598V83H181.268V73.396ZM185.874 78.156C186.397 78.156 186.812 77.9927 187.12 77.666C187.428 77.3393 187.582 76.896 187.582 76.336C187.582 75.7667 187.437 75.328 187.148 75.02C186.859 74.712 186.434 74.558 185.874 74.558H182.598V78.156H185.874ZM193.56 83.168C192.375 83.168 191.493 82.8553 190.914 82.23C190.335 81.6047 190.046 80.634 190.046 79.318C190.046 78.002 190.335 77.0313 190.914 76.406C191.493 75.7807 192.375 75.468 193.56 75.468C194.624 75.468 195.417 75.7527 195.94 76.322C196.472 76.882 196.738 77.7873 196.738 79.038V79.654H191.32C191.367 80.5033 191.567 81.1333 191.922 81.544C192.286 81.9453 192.832 82.146 193.56 82.146C194.148 82.146 194.624 82.0107 194.988 81.74C195.352 81.4693 195.534 81.054 195.534 80.494H196.738C196.738 81.3527 196.439 82.0153 195.842 82.482C195.254 82.9393 194.493 83.168 193.56 83.168ZM195.45 78.632C195.45 77.204 194.82 76.49 193.56 76.49C192.86 76.49 192.333 76.658 191.978 76.994C191.633 77.33 191.423 77.876 191.348 78.632H195.45ZM198.217 75.636H199.155L199.295 76.742H199.379C199.519 76.378 199.729 76.0747 200.009 75.832C200.289 75.5893 200.658 75.468 201.115 75.468C201.367 75.468 201.587 75.5053 201.773 75.58V76.77H201.255C200.733 76.77 200.299 76.924 199.953 77.232C199.617 77.5307 199.449 78.002 199.449 78.646V83H198.217V75.636ZM205.399 83.168C204.718 83.168 204.149 83.07 203.691 82.874C203.243 82.6687 202.912 82.4027 202.697 82.076C202.483 81.7493 202.375 81.3947 202.375 81.012C202.375 80.9 202.375 80.8253 202.375 80.788C202.385 80.7413 202.389 80.7133 202.389 80.704H203.607V80.844C203.607 81.2827 203.78 81.614 204.125 81.838C204.471 82.0527 204.919 82.16 205.469 82.16C205.945 82.16 206.337 82.0667 206.645 81.88C206.963 81.684 207.121 81.4133 207.121 81.068C207.121 80.7973 207.033 80.578 206.855 80.41C206.678 80.2327 206.459 80.0973 206.197 80.004C205.936 79.9013 205.581 79.794 205.133 79.682C204.592 79.542 204.149 79.402 203.803 79.262C203.467 79.122 203.178 78.9167 202.935 78.646C202.702 78.366 202.585 78.0067 202.585 77.568C202.585 76.924 202.847 76.4153 203.369 76.042C203.901 75.6593 204.615 75.468 205.511 75.468C206.071 75.468 206.557 75.5613 206.967 75.748C207.378 75.9253 207.686 76.168 207.891 76.476C208.106 76.7747 208.213 77.1107 208.213 77.484L208.199 77.75H206.995V77.624C206.995 77.2973 206.865 77.0267 206.603 76.812C206.351 76.5973 205.941 76.49 205.371 76.49C204.811 76.49 204.419 76.5927 204.195 76.798C203.971 76.994 203.859 77.2227 203.859 77.484C203.859 77.6987 203.939 77.876 204.097 78.016C204.256 78.156 204.452 78.268 204.685 78.352C204.919 78.436 205.245 78.5293 205.665 78.632C206.244 78.7813 206.715 78.9307 207.079 79.08C207.443 79.22 207.751 79.4393 208.003 79.738C208.265 80.0273 208.395 80.4147 208.395 80.9C208.395 81.656 208.12 82.2253 207.569 82.608C207.028 82.9813 206.305 83.168 205.399 83.168ZM212.833 83.168C211.704 83.168 210.855 82.8553 210.285 82.23C209.716 81.5953 209.431 80.6247 209.431 79.318C209.431 78.0113 209.716 77.0453 210.285 76.42C210.855 75.7853 211.704 75.468 212.833 75.468C213.963 75.468 214.812 75.7853 215.381 76.42C215.951 77.0453 216.235 78.0113 216.235 79.318C216.235 80.6247 215.951 81.5953 215.381 82.23C214.812 82.8553 213.963 83.168 212.833 83.168ZM212.833 82.146C213.58 82.146 214.121 81.9313 214.457 81.502C214.793 81.0633 214.961 80.354 214.961 79.374V79.262C214.961 78.282 214.793 77.5773 214.457 77.148C214.121 76.7093 213.58 76.49 212.833 76.49C212.087 76.49 211.545 76.7093 211.209 77.148C210.873 77.5773 210.705 78.282 210.705 79.262V79.374C210.705 80.354 210.873 81.0633 211.209 81.502C211.545 81.9313 212.087 82.146 212.833 82.146ZM217.659 75.636H218.597L218.737 76.63H218.835C219.376 75.8553 220.202 75.468 221.313 75.468C222.05 75.468 222.615 75.6687 223.007 76.07C223.408 76.462 223.609 77.0967 223.609 77.974V83H222.377V78.058C222.377 77.47 222.246 77.064 221.985 76.84C221.723 76.6067 221.345 76.49 220.851 76.49C220.496 76.49 220.169 76.5787 219.871 76.756C219.572 76.924 219.334 77.1713 219.157 77.498C218.979 77.8247 218.891 78.2073 218.891 78.646V83H217.659V75.636ZM227.44 83.168C226.805 83.168 226.241 83.0187 225.746 82.72C225.251 82.4213 225.004 81.88 225.004 81.096C225.004 80.1533 225.424 79.5093 226.264 79.164C227.104 78.8093 228.317 78.632 229.904 78.632V77.82C229.904 77.3907 229.783 77.064 229.54 76.84C229.297 76.6067 228.859 76.49 228.224 76.49C227.627 76.49 227.197 76.602 226.936 76.826C226.684 77.05 226.558 77.3253 226.558 77.652V77.82H225.368C225.359 77.764 225.354 77.6613 225.354 77.512C225.354 76.8587 225.625 76.3547 226.166 76C226.707 75.6453 227.431 75.468 228.336 75.468C229.251 75.468 229.946 75.6593 230.422 76.042C230.898 76.4247 231.136 76.966 231.136 77.666V81.656C231.136 81.824 231.183 81.95 231.276 82.034C231.369 82.1087 231.486 82.146 231.626 82.146H232.186V82.944C231.943 83.056 231.626 83.112 231.234 83.112C230.917 83.112 230.651 83.0187 230.436 82.832C230.221 82.636 230.077 82.3793 230.002 82.062H229.904C229.652 82.4073 229.307 82.678 228.868 82.874C228.439 83.07 227.963 83.168 227.44 83.168ZM227.762 82.146C228.126 82.146 228.471 82.0713 228.798 81.922C229.125 81.7727 229.391 81.5533 229.596 81.264C229.801 80.9653 229.904 80.606 229.904 80.186V79.654C228.7 79.654 227.795 79.752 227.188 79.948C226.591 80.1347 226.292 80.494 226.292 81.026C226.292 81.4273 226.413 81.7167 226.656 81.894C226.908 82.062 227.277 82.146 227.762 82.146ZM233.217 72.878H234.449V83H233.217V72.878ZM240.385 73.396H243.941C245.481 73.396 246.667 73.7927 247.497 74.586C248.328 75.37 248.743 76.574 248.743 78.198C248.743 79.822 248.328 81.0307 247.497 81.824C246.667 82.608 245.481 83 243.941 83H240.385V73.396ZM243.941 81.838C245.052 81.838 245.897 81.558 246.475 80.998C247.063 80.438 247.362 79.514 247.371 78.226V78.198C247.371 76.9007 247.077 75.972 246.489 75.412C245.911 74.8427 245.061 74.558 243.941 74.558H241.715V81.838H243.941ZM252.323 83.168C251.688 83.168 251.123 83.0187 250.629 82.72C250.134 82.4213 249.887 81.88 249.887 81.096C249.887 80.1533 250.307 79.5093 251.147 79.164C251.987 78.8093 253.2 78.632 254.787 78.632V77.82C254.787 77.3907 254.665 77.064 254.423 76.84C254.18 76.6067 253.741 76.49 253.107 76.49C252.509 76.49 252.08 76.602 251.819 76.826C251.567 77.05 251.441 77.3253 251.441 77.652V77.82H250.251C250.241 77.764 250.237 77.6613 250.237 77.512C250.237 76.8587 250.507 76.3547 251.049 76C251.59 75.6453 252.313 75.468 253.219 75.468C254.133 75.468 254.829 75.6593 255.305 76.042C255.781 76.4247 256.019 76.966 256.019 77.666V81.656C256.019 81.824 256.065 81.95 256.159 82.034C256.252 82.1087 256.369 82.146 256.509 82.146H257.069V82.944C256.826 83.056 256.509 83.112 256.117 83.112C255.799 83.112 255.533 83.0187 255.319 82.832C255.104 82.636 254.959 82.3793 254.885 82.062H254.787C254.535 82.4073 254.189 82.678 253.751 82.874C253.321 83.07 252.845 83.168 252.323 83.168ZM252.645 82.146C253.009 82.146 253.354 82.0713 253.681 81.922C254.007 81.7727 254.273 81.5533 254.479 81.264C254.684 80.9653 254.787 80.606 254.787 80.186V79.654C253.583 79.654 252.677 79.752 252.071 79.948C251.473 80.1347 251.175 80.494 251.175 81.026C251.175 81.4273 251.296 81.7167 251.539 81.894C251.791 82.062 252.159 82.146 252.645 82.146ZM259.766 83.154C259.262 83.154 258.893 83.0047 258.66 82.706C258.427 82.4073 258.31 82.0387 258.31 81.6V76.658H257.414V75.636H258.324L258.59 73.592H259.542V75.636H260.788V76.658H259.542V81.488C259.542 81.9267 259.747 82.146 260.158 82.146H260.788V82.958C260.667 83.014 260.508 83.0607 260.312 83.098C260.116 83.1353 259.934 83.154 259.766 83.154ZM263.999 83.168C263.364 83.168 262.799 83.0187 262.305 82.72C261.81 82.4213 261.563 81.88 261.563 81.096C261.563 80.1533 261.983 79.5093 262.823 79.164C263.663 78.8093 264.876 78.632 266.463 78.632V77.82C266.463 77.3907 266.341 77.064 266.099 76.84C265.856 76.6067 265.417 76.49 264.783 76.49C264.185 76.49 263.756 76.602 263.495 76.826C263.243 77.05 263.117 77.3253 263.117 77.652V77.82H261.927C261.917 77.764 261.913 77.6613 261.913 77.512C261.913 76.8587 262.183 76.3547 262.725 76C263.266 75.6453 263.989 75.468 264.895 75.468C265.809 75.468 266.505 75.6593 266.981 76.042C267.457 76.4247 267.695 76.966 267.695 77.666V81.656C267.695 81.824 267.741 81.95 267.835 82.034C267.928 82.1087 268.045 82.146 268.185 82.146H268.745V82.944C268.502 83.056 268.185 83.112 267.793 83.112C267.475 83.112 267.209 83.0187 266.995 82.832C266.78 82.636 266.635 82.3793 266.561 82.062H266.463C266.211 82.4073 265.865 82.678 265.427 82.874C264.997 83.07 264.521 83.168 263.999 83.168ZM264.321 82.146C264.685 82.146 265.03 82.0713 265.357 81.922C265.683 81.7727 265.949 81.5533 266.155 81.264C266.36 80.9653 266.463 80.606 266.463 80.186V79.654C265.259 79.654 264.353 79.752 263.747 79.948C263.149 80.1347 262.851 80.494 262.851 81.026C262.851 81.4273 262.972 81.7167 263.215 81.894C263.467 82.062 263.835 82.146 264.321 82.146Z" fill="white"/>
<circle cx="224" cy="19" r="13" fill="#152A61"/>
<path d="M220.212 23.496C220.212 22.964 220.329 22.488 220.562 22.068C220.796 21.6387 221.08 21.2653 221.416 20.948C221.762 20.6307 222.21 20.2713 222.76 19.87C223.236 19.506 223.61 19.2027 223.88 18.96C224.16 18.7173 224.394 18.4513 224.58 18.162C224.814 17.798 224.93 17.3873 224.93 16.93C224.93 16.6313 224.818 16.37 224.594 16.146C224.38 15.9127 224.067 15.796 223.656 15.796C222.732 15.796 222.27 16.2393 222.27 17.126V17.7H220.366C220.329 17.532 220.31 17.3453 220.31 17.14C220.31 16.1693 220.632 15.4413 221.276 14.956C221.93 14.4707 222.751 14.228 223.74 14.228C224.608 14.228 225.276 14.396 225.742 14.732C226.209 15.068 226.512 15.446 226.652 15.866C226.802 16.286 226.876 16.678 226.876 17.042C226.876 17.686 226.732 18.26 226.442 18.764C226.153 19.2587 225.808 19.6787 225.406 20.024C225.014 20.36 224.524 20.7287 223.936 21.13C223.488 21.438 223.152 21.69 222.928 21.886C222.77 22.026 222.653 22.1613 222.578 22.292H226.932V24H220.212V23.496Z" fill="white"/>
<path d="M562.874 73.396H564.568L568.292 83H566.878L565.912 80.438H561.46L560.522 83H559.15L562.874 73.396ZM565.478 79.276L564.358 76.28L563.714 74.544H563.644L563.014 76.252L561.894 79.276H565.478ZM569.328 75.636H570.266L570.406 76.742H570.49C570.63 76.378 570.84 76.0747 571.12 75.832C571.4 75.5893 571.768 75.468 572.226 75.468C572.478 75.468 572.697 75.5053 572.884 75.58V76.77H572.366C571.843 76.77 571.409 76.924 571.064 77.232C570.728 77.5307 570.56 78.002 570.56 78.646V83H569.328V75.636ZM575.656 83.154C575.152 83.154 574.783 83.0047 574.55 82.706C574.316 82.4073 574.2 82.0387 574.2 81.6V76.658H573.304V75.636H574.214L574.48 73.592H575.432V75.636H576.678V76.658H575.432V81.488C575.432 81.9267 575.637 82.146 576.048 82.146H576.678V82.958C576.556 83.014 576.398 83.0607 576.202 83.098C576.006 83.1353 575.824 83.154 575.656 83.154ZM577.018 75.636H578.292L579.426 79.808C579.501 80.06 579.646 80.6387 579.86 81.544H579.93L580.294 79.808L581.26 75.636H582.758L583.78 79.808C583.846 80.06 583.972 80.6387 584.158 81.544H584.228C584.424 80.676 584.564 80.0973 584.648 79.808L585.768 75.636H586.972L584.76 83H583.416L582.352 78.604L582.016 77.092H581.96C581.811 77.8387 581.704 78.3427 581.638 78.604L580.588 83H579.23L577.018 75.636ZM590.944 83.168C589.814 83.168 588.965 82.8553 588.396 82.23C587.826 81.5953 587.542 80.6247 587.542 79.318C587.542 78.0113 587.826 77.0453 588.396 76.42C588.965 75.7853 589.814 75.468 590.944 75.468C592.073 75.468 592.922 75.7853 593.492 76.42C594.061 77.0453 594.346 78.0113 594.346 79.318C594.346 80.6247 594.061 81.5953 593.492 82.23C592.922 82.8553 592.073 83.168 590.944 83.168ZM590.944 82.146C591.69 82.146 592.232 81.9313 592.568 81.502C592.904 81.0633 593.072 80.354 593.072 79.374V79.262C593.072 78.282 592.904 77.5773 592.568 77.148C592.232 76.7093 591.69 76.49 590.944 76.49C590.197 76.49 589.656 76.7093 589.32 77.148C588.984 77.5773 588.816 78.282 588.816 79.262V79.374C588.816 80.354 588.984 81.0633 589.32 81.502C589.656 81.9313 590.197 82.146 590.944 82.146ZM595.769 75.636H596.707L596.847 76.742H596.931C597.071 76.378 597.281 76.0747 597.561 75.832C597.841 75.5893 598.21 75.468 598.667 75.468C598.919 75.468 599.138 75.5053 599.325 75.58V76.77H598.807C598.284 76.77 597.85 76.924 597.505 77.232C597.169 77.5307 597.001 78.002 597.001 78.646V83H595.769V75.636ZM600.431 72.878H601.663V79.248L604.785 75.636H606.311L603.777 78.534L606.451 83H605.023L603.007 79.416L601.663 80.69V83H600.431V72.878ZM611.496 73.396H615.052C616.592 73.396 617.777 73.7927 618.608 74.586C619.438 75.37 619.854 76.574 619.854 78.198C619.854 79.822 619.438 81.0307 618.608 81.824C617.777 82.608 616.592 83 615.052 83H611.496V73.396ZM615.052 81.838C616.162 81.838 617.007 81.558 617.586 80.998C618.174 80.438 618.472 79.514 618.482 78.226V78.198C618.482 76.9007 618.188 75.972 617.6 75.412C617.021 74.8427 616.172 74.558 615.052 74.558H612.826V81.838H615.052ZM623.433 83.168C622.798 83.168 622.234 83.0187 621.739 82.72C621.244 82.4213 620.997 81.88 620.997 81.096C620.997 80.1533 621.417 79.5093 622.257 79.164C623.097 78.8093 624.31 78.632 625.897 78.632V77.82C625.897 77.3907 625.776 77.064 625.533 76.84C625.29 76.6067 624.852 76.49 624.217 76.49C623.62 76.49 623.19 76.602 622.929 76.826C622.677 77.05 622.551 77.3253 622.551 77.652V77.82H621.361C621.352 77.764 621.347 77.6613 621.347 77.512C621.347 76.8587 621.618 76.3547 622.159 76C622.7 75.6453 623.424 75.468 624.329 75.468C625.244 75.468 625.939 75.6593 626.415 76.042C626.891 76.4247 627.129 76.966 627.129 77.666V81.656C627.129 81.824 627.176 81.95 627.269 82.034C627.362 82.1087 627.479 82.146 627.619 82.146H628.179V82.944C627.936 83.056 627.619 83.112 627.227 83.112C626.91 83.112 626.644 83.0187 626.429 82.832C626.214 82.636 626.07 82.3793 625.995 82.062H625.897C625.645 82.4073 625.3 82.678 624.861 82.874C624.432 83.07 623.956 83.168 623.433 83.168ZM623.755 82.146C624.119 82.146 624.464 82.0713 624.791 81.922C625.118 81.7727 625.384 81.5533 625.589 81.264C625.794 80.9653 625.897 80.606 625.897 80.186V79.654C624.693 79.654 623.788 79.752 623.181 79.948C622.584 80.1347 622.285 80.494 622.285 81.026C622.285 81.4273 622.406 81.7167 622.649 81.894C622.901 82.062 623.27 82.146 623.755 82.146ZM630.876 83.154C630.372 83.154 630.004 83.0047 629.77 82.706C629.537 82.4073 629.42 82.0387 629.42 81.6V76.658H628.524V75.636H629.434L629.7 73.592H630.652V75.636H631.898V76.658H630.652V81.488C630.652 81.9267 630.858 82.146 631.268 82.146H631.898V82.958C631.777 83.014 631.618 83.0607 631.422 83.098C631.226 83.1353 631.044 83.154 630.876 83.154ZM635.109 83.168C634.474 83.168 633.91 83.0187 633.415 82.72C632.92 82.4213 632.673 81.88 632.673 81.096C632.673 80.1533 633.093 79.5093 633.933 79.164C634.773 78.8093 635.986 78.632 637.573 78.632V77.82C637.573 77.3907 637.452 77.064 637.209 76.84C636.966 76.6067 636.528 76.49 635.893 76.49C635.296 76.49 634.866 76.602 634.605 76.826C634.353 77.05 634.227 77.3253 634.227 77.652V77.82H633.037C633.028 77.764 633.023 77.6613 633.023 77.512C633.023 76.8587 633.294 76.3547 633.835 76C634.376 75.6453 635.1 75.468 636.005 75.468C636.92 75.468 637.615 75.6593 638.091 76.042C638.567 76.4247 638.805 76.966 638.805 77.666V81.656C638.805 81.824 638.852 81.95 638.945 82.034C639.038 82.1087 639.155 82.146 639.295 82.146H639.855V82.944C639.612 83.056 639.295 83.112 638.903 83.112C638.586 83.112 638.32 83.0187 638.105 82.832C637.89 82.636 637.746 82.3793 637.671 82.062H637.573C637.321 82.4073 636.976 82.678 636.537 82.874C636.108 83.07 635.632 83.168 635.109 83.168ZM635.431 82.146C635.795 82.146 636.14 82.0713 636.467 81.922C636.794 81.7727 637.06 81.5533 637.265 81.264C637.47 80.9653 637.573 80.606 637.573 80.186V79.654C636.369 79.654 635.464 79.752 634.857 79.948C634.26 80.1347 633.961 80.494 633.961 81.026C633.961 81.4273 634.082 81.7167 634.325 81.894C634.577 82.062 634.946 82.146 635.431 82.146Z" fill="white"/>
<circle cx="600" cy="18" r="13" fill="#152A61"/>
<path d="M601.006 21.956H596.89V20.388C598.038 18.5493 598.897 16.496 599.466 14.228H601.44C601.263 14.984 600.988 15.7867 600.614 16.636C600.25 17.476 599.872 18.2367 599.48 18.918C599.098 19.5993 598.79 20.0893 598.556 20.388H601.006V18.274C601.202 17.9193 601.394 17.4947 601.58 17C601.776 16.5053 601.93 16.0573 602.042 15.656H602.924V20.388H604.072V21.956H602.924V24H601.006V21.956Z" fill="white"/>
<path d="M355.943 73.396H360.619C361.58 73.396 362.318 73.662 362.831 74.194C363.344 74.726 363.601 75.4353 363.601 76.322C363.601 77.2273 363.33 77.9553 362.789 78.506C362.257 79.0473 361.534 79.318 360.619 79.318H357.273V83H355.943V73.396ZM360.549 78.156C361.072 78.156 361.487 77.9927 361.795 77.666C362.103 77.3393 362.257 76.896 362.257 76.336C362.257 75.7667 362.112 75.328 361.823 75.02C361.534 74.712 361.109 74.558 360.549 74.558H357.273V78.156H360.549ZM365.113 72.878H366.345V76.462H366.443C366.956 75.7993 367.731 75.468 368.767 75.468C370.297 75.468 371.063 76.3033 371.063 77.974V83H369.831V78.058C369.831 77.47 369.7 77.064 369.439 76.84C369.177 76.6067 368.799 76.49 368.305 76.49C367.95 76.49 367.623 76.5787 367.325 76.756C367.026 76.924 366.788 77.1713 366.611 77.498C366.433 77.8247 366.345 78.2073 366.345 78.646V83H365.113V72.878ZM375.846 83.168C374.717 83.168 373.867 82.8553 373.298 82.23C372.729 81.5953 372.444 80.6247 372.444 79.318C372.444 78.0113 372.729 77.0453 373.298 76.42C373.867 75.7853 374.717 75.468 375.846 75.468C376.975 75.468 377.825 75.7853 378.394 76.42C378.963 77.0453 379.248 78.0113 379.248 79.318C379.248 80.6247 378.963 81.5953 378.394 82.23C377.825 82.8553 376.975 83.168 375.846 83.168ZM375.846 82.146C376.593 82.146 377.134 81.9313 377.47 81.502C377.806 81.0633 377.974 80.354 377.974 79.374V79.262C377.974 78.282 377.806 77.5773 377.47 77.148C377.134 76.7093 376.593 76.49 375.846 76.49C375.099 76.49 374.558 76.7093 374.222 77.148C373.886 77.5773 373.718 78.282 373.718 79.262V79.374C373.718 80.354 373.886 81.0633 374.222 81.502C374.558 81.9313 375.099 82.146 375.846 82.146ZM380.671 75.636H381.609L381.749 76.63H381.847C382.389 75.8553 383.215 75.468 384.325 75.468C385.063 75.468 385.627 75.6687 386.019 76.07C386.421 76.462 386.621 77.0967 386.621 77.974V83H385.389V78.058C385.389 77.47 385.259 77.064 384.997 76.84C384.736 76.6067 384.358 76.49 383.863 76.49C383.509 76.49 383.182 76.5787 382.883 76.756C382.585 76.924 382.347 77.1713 382.169 77.498C381.992 77.8247 381.903 78.2073 381.903 78.646V83H380.671V75.636ZM391.573 83.168C390.387 83.168 389.505 82.8553 388.927 82.23C388.348 81.6047 388.059 80.634 388.059 79.318C388.059 78.002 388.348 77.0313 388.927 76.406C389.505 75.7807 390.387 75.468 391.573 75.468C392.637 75.468 393.43 75.7527 393.953 76.322C394.485 76.882 394.751 77.7873 394.751 79.038V79.654H389.333C389.379 80.5033 389.58 81.1333 389.935 81.544C390.299 81.9453 390.845 82.146 391.573 82.146C392.161 82.146 392.637 82.0107 393.001 81.74C393.365 81.4693 393.547 81.054 393.547 80.494H394.751C394.751 81.3527 394.452 82.0153 393.855 82.482C393.267 82.9393 392.506 83.168 391.573 83.168ZM393.463 78.632C393.463 77.204 392.833 76.49 391.573 76.49C390.873 76.49 390.345 76.658 389.991 76.994C389.645 77.33 389.435 77.876 389.361 78.632H393.463ZM399.412 73.396H400.854L403.388 80.382L403.864 81.67H403.934L404.382 80.438L406.93 73.396H408.302L404.732 83H402.982L399.412 73.396ZM412.34 83.168C411.155 83.168 410.273 82.8553 409.694 82.23C409.116 81.6047 408.826 80.634 408.826 79.318C408.826 78.002 409.116 77.0313 409.694 76.406C410.273 75.7807 411.155 75.468 412.34 75.468C413.404 75.468 414.198 75.7527 414.72 76.322C415.252 76.882 415.518 77.7873 415.518 79.038V79.654H410.1C410.147 80.5033 410.348 81.1333 410.702 81.544C411.066 81.9453 411.612 82.146 412.34 82.146C412.928 82.146 413.404 82.0107 413.768 81.74C414.132 81.4693 414.314 81.054 414.314 80.494H415.518C415.518 81.3527 415.22 82.0153 414.622 82.482C414.034 82.9393 413.274 83.168 412.34 83.168ZM414.23 78.632C414.23 77.204 413.6 76.49 412.34 76.49C411.64 76.49 411.113 76.658 410.758 76.994C410.413 77.33 410.203 77.876 410.128 78.632H414.23ZM416.998 75.636H417.936L418.076 76.742H418.16C418.3 76.378 418.51 76.0747 418.79 75.832C419.07 75.5893 419.438 75.468 419.896 75.468C420.148 75.468 420.367 75.5053 420.554 75.58V76.77H420.036C419.513 76.77 419.079 76.924 418.734 77.232C418.398 77.5307 418.23 78.002 418.23 78.646V83H416.998V75.636ZM421.66 72.878H422.878V74.208H421.66V72.878ZM421.66 75.636H422.892V83H421.66V75.636ZM425.029 76.658H423.951V75.636H425.029V74.46C425.029 73.9747 425.151 73.5733 425.393 73.256C425.636 72.9293 426.047 72.766 426.625 72.766C426.812 72.766 426.999 72.7847 427.185 72.822C427.381 72.85 427.545 72.8873 427.675 72.934V73.788H426.947C426.49 73.788 426.261 74.012 426.261 74.46V75.636H427.675V76.658H426.261V83H425.029V76.658ZM428.655 72.878H429.887V74.25H428.655V72.878ZM428.655 75.636H429.887V83H428.655V75.636ZM434.563 83.168C433.443 83.168 432.622 82.86 432.099 82.244C431.577 81.6187 431.315 80.6433 431.315 79.318C431.315 78.002 431.577 77.0313 432.099 76.406C432.631 75.7807 433.453 75.468 434.563 75.468C435.571 75.468 436.309 75.7107 436.775 76.196C437.242 76.6813 437.475 77.4047 437.475 78.366H436.215C436.215 77.7033 436.094 77.2273 435.851 76.938C435.618 76.6393 435.189 76.49 434.563 76.49C433.882 76.49 433.383 76.714 433.065 77.162C432.748 77.6007 432.589 78.3193 432.589 79.318V79.374C432.589 80.3633 432.743 81.0727 433.051 81.502C433.359 81.9313 433.863 82.146 434.563 82.146C435.179 82.146 435.618 81.992 435.879 81.684C436.15 81.3667 436.285 80.8953 436.285 80.27H437.475C437.475 81.11 437.237 81.8053 436.761 82.356C436.285 82.8973 435.553 83.168 434.563 83.168ZM440.765 83.168C440.131 83.168 439.566 83.0187 439.071 82.72C438.577 82.4213 438.329 81.88 438.329 81.096C438.329 80.1533 438.749 79.5093 439.589 79.164C440.429 78.8093 441.643 78.632 443.229 78.632V77.82C443.229 77.3907 443.108 77.064 442.865 76.84C442.623 76.6067 442.184 76.49 441.549 76.49C440.952 76.49 440.523 76.602 440.261 76.826C440.009 77.05 439.883 77.3253 439.883 77.652V77.82H438.693C438.684 77.764 438.679 77.6613 438.679 77.512C438.679 76.8587 438.95 76.3547 439.491 76C440.033 75.6453 440.756 75.468 441.661 75.468C442.576 75.468 443.271 75.6593 443.747 76.042C444.223 76.4247 444.461 76.966 444.461 77.666V81.656C444.461 81.824 444.508 81.95 444.601 82.034C444.695 82.1087 444.811 82.146 444.951 82.146H445.511V82.944C445.269 83.056 444.951 83.112 444.559 83.112C444.242 83.112 443.976 83.0187 443.761 82.832C443.547 82.636 443.402 82.3793 443.327 82.062H443.229C442.977 82.4073 442.632 82.678 442.193 82.874C441.764 83.07 441.288 83.168 440.765 83.168ZM441.087 82.146C441.451 82.146 441.797 82.0713 442.123 81.922C442.45 81.7727 442.716 81.5533 442.921 81.264C443.127 80.9653 443.229 80.606 443.229 80.186V79.654C442.025 79.654 441.12 79.752 440.513 79.948C439.916 80.1347 439.617 80.494 439.617 81.026C439.617 81.4273 439.739 81.7167 439.981 81.894C440.233 82.062 440.602 82.146 441.087 82.146ZM448.208 83.154C447.704 83.154 447.336 83.0047 447.102 82.706C446.869 82.4073 446.752 82.0387 446.752 81.6V76.658H445.856V75.636H446.766L447.032 73.592H447.984V75.636H449.23V76.658H447.984V81.488C447.984 81.9267 448.19 82.146 448.6 82.146H449.23V82.958C449.109 83.014 448.95 83.0607 448.754 83.098C448.558 83.1353 448.376 83.154 448.208 83.154ZM450.439 72.878H451.657V74.208H450.439V72.878ZM450.439 75.636H451.671V83H450.439V75.636ZM456.496 83.168C455.367 83.168 454.518 82.8553 453.948 82.23C453.379 81.5953 453.094 80.6247 453.094 79.318C453.094 78.0113 453.379 77.0453 453.948 76.42C454.518 75.7853 455.367 75.468 456.496 75.468C457.626 75.468 458.475 75.7853 459.044 76.42C459.614 77.0453 459.898 78.0113 459.898 79.318C459.898 80.6247 459.614 81.5953 459.044 82.23C458.475 82.8553 457.626 83.168 456.496 83.168ZM456.496 82.146C457.243 82.146 457.784 81.9313 458.12 81.502C458.456 81.0633 458.624 80.354 458.624 79.374V79.262C458.624 78.282 458.456 77.5773 458.12 77.148C457.784 76.7093 457.243 76.49 456.496 76.49C455.75 76.49 455.208 76.7093 454.872 77.148C454.536 77.5773 454.368 78.282 454.368 79.262V79.374C454.368 80.354 454.536 81.0633 454.872 81.502C455.208 81.9313 455.75 82.146 456.496 82.146ZM461.322 75.636H462.26L462.4 76.63H462.498C463.039 75.8553 463.865 75.468 464.976 75.468C465.713 75.468 466.278 75.6687 466.67 76.07C467.071 76.462 467.272 77.0967 467.272 77.974V83H466.04V78.058C466.04 77.47 465.909 77.064 465.648 76.84C465.386 76.6067 465.008 76.49 464.514 76.49C464.159 76.49 463.832 76.5787 463.534 76.756C463.235 76.924 462.997 77.1713 462.82 77.498C462.642 77.8247 462.554 78.2073 462.554 78.646V83H461.322V75.636Z" fill="white"/>
<circle cx="412" cy="19" r="13" fill="#152A61"/>
<path d="M412.53 24.168C411.429 24.168 410.58 23.9113 409.982 23.398C409.385 22.8753 409.086 22.1707 409.086 21.284V21.032H411.032V21.326C411.032 21.7367 411.158 22.054 411.41 22.278C411.662 22.4927 412.026 22.6 412.502 22.6C412.932 22.6 413.272 22.4927 413.524 22.278C413.776 22.054 413.902 21.7227 413.902 21.284C413.902 20.7707 413.762 20.4113 413.482 20.206C413.202 20.0007 412.829 19.898 412.362 19.898H411.648V18.33H412.404C412.787 18.33 413.1 18.218 413.342 17.994C413.585 17.7607 413.706 17.4247 413.706 16.986C413.706 16.5847 413.599 16.286 413.384 16.09C413.179 15.894 412.885 15.796 412.502 15.796C412.101 15.796 411.788 15.8987 411.564 16.104C411.34 16.3 411.228 16.594 411.228 16.986V17.252H409.282V16.86C409.282 16.3373 409.418 15.88 409.688 15.488C409.959 15.0867 410.332 14.7787 410.808 14.564C411.294 14.34 411.844 14.228 412.46 14.228C413.44 14.228 414.22 14.4567 414.798 14.914C415.386 15.3713 415.68 16.02 415.68 16.86C415.68 17.392 415.545 17.8307 415.274 18.176C415.013 18.512 414.644 18.792 414.168 19.016V19.072C414.691 19.2307 415.106 19.5107 415.414 19.912C415.722 20.3133 415.876 20.8173 415.876 21.424C415.876 21.984 415.732 22.474 415.442 22.894C415.162 23.3047 414.77 23.622 414.266 23.846C413.762 24.0607 413.184 24.168 412.53 24.168Z" fill="white"/>
<path d="M714.972 83.168C713.806 83.168 712.854 82.9347 712.116 82.468C711.379 82.0013 711.01 81.2733 711.01 80.284L711.024 80.004H712.34C712.322 80.1347 712.312 80.2327 712.312 80.298C712.312 80.8673 712.546 81.3013 713.012 81.6C713.488 81.8893 714.118 82.034 714.902 82.034C715.78 82.034 716.452 81.8987 716.918 81.628C717.385 81.348 717.618 80.9513 717.618 80.438C717.618 80.0927 717.497 79.808 717.254 79.584C717.012 79.3507 716.704 79.1687 716.33 79.038C715.966 78.9073 715.472 78.7627 714.846 78.604C714.072 78.408 713.446 78.2213 712.97 78.044C712.494 77.8573 712.088 77.5867 711.752 77.232C711.416 76.868 711.248 76.392 711.248 75.804C711.248 74.964 711.598 74.3247 712.298 73.886C712.998 73.4473 713.894 73.228 714.986 73.228C716.078 73.228 716.965 73.452 717.646 73.9C718.328 74.3387 718.668 75.0153 718.668 75.93V76.098H717.366V75.888C717.366 75.412 717.147 75.0387 716.708 74.768C716.279 74.4973 715.719 74.362 715.028 74.362C714.291 74.362 713.698 74.474 713.25 74.698C712.812 74.922 712.592 75.258 712.592 75.706C712.592 76.0327 712.709 76.2987 712.942 76.504C713.185 76.7093 713.479 76.8773 713.824 77.008C714.179 77.1293 714.669 77.2693 715.294 77.428C716.069 77.624 716.699 77.8153 717.184 78.002C717.679 78.1887 718.094 78.464 718.43 78.828C718.776 79.1827 718.948 79.6493 718.948 80.228C718.948 81.2547 718.589 82.0013 717.87 82.468C717.161 82.9347 716.195 83.168 714.972 83.168ZM723.554 83.168C722.425 83.168 721.575 82.8553 721.006 82.23C720.437 81.5953 720.152 80.6247 720.152 79.318C720.152 78.0113 720.437 77.0453 721.006 76.42C721.575 75.7853 722.425 75.468 723.554 75.468C724.683 75.468 725.533 75.7853 726.102 76.42C726.671 77.0453 726.956 78.0113 726.956 79.318C726.956 80.6247 726.671 81.5953 726.102 82.23C725.533 82.8553 724.683 83.168 723.554 83.168ZM723.554 82.146C724.301 82.146 724.842 81.9313 725.178 81.502C725.514 81.0633 725.682 80.354 725.682 79.374V79.262C725.682 78.282 725.514 77.5773 725.178 77.148C724.842 76.7093 724.301 76.49 723.554 76.49C722.807 76.49 722.266 76.7093 721.93 77.148C721.594 77.5773 721.426 78.282 721.426 79.262V79.374C721.426 80.354 721.594 81.0633 721.93 81.502C722.266 81.9313 722.807 82.146 723.554 82.146ZM731.179 83.168C730.059 83.168 729.238 82.86 728.715 82.244C728.193 81.6187 727.931 80.6433 727.931 79.318C727.931 78.002 728.193 77.0313 728.715 76.406C729.247 75.7807 730.069 75.468 731.179 75.468C732.187 75.468 732.925 75.7107 733.391 76.196C733.858 76.6813 734.091 77.4047 734.091 78.366H732.831C732.831 77.7033 732.71 77.2273 732.467 76.938C732.234 76.6393 731.805 76.49 731.179 76.49C730.498 76.49 729.999 76.714 729.681 77.162C729.364 77.6007 729.205 78.3193 729.205 79.318V79.374C729.205 80.3633 729.359 81.0727 729.667 81.502C729.975 81.9313 730.479 82.146 731.179 82.146C731.795 82.146 732.234 81.992 732.495 81.684C732.766 81.3667 732.901 80.8953 732.901 80.27H734.091C734.091 81.11 733.853 81.8053 733.377 82.356C732.901 82.8973 732.169 83.168 731.179 83.168ZM735.379 72.878H736.597V74.208H735.379V72.878ZM735.379 75.636H736.611V83H735.379V75.636ZM740.485 83.168C739.85 83.168 739.286 83.0187 738.791 82.72C738.296 82.4213 738.049 81.88 738.049 81.096C738.049 80.1533 738.469 79.5093 739.309 79.164C740.149 78.8093 741.362 78.632 742.949 78.632V77.82C742.949 77.3907 742.828 77.064 742.585 76.84C742.342 76.6067 741.904 76.49 741.269 76.49C740.672 76.49 740.242 76.602 739.981 76.826C739.729 77.05 739.603 77.3253 739.603 77.652V77.82H738.413C738.404 77.764 738.399 77.6613 738.399 77.512C738.399 76.8587 738.67 76.3547 739.211 76C739.752 75.6453 740.476 75.468 741.381 75.468C742.296 75.468 742.991 75.6593 743.467 76.042C743.943 76.4247 744.181 76.966 744.181 77.666V81.656C744.181 81.824 744.228 81.95 744.321 82.034C744.414 82.1087 744.531 82.146 744.671 82.146H745.231V82.944C744.988 83.056 744.671 83.112 744.279 83.112C743.962 83.112 743.696 83.0187 743.481 82.832C743.266 82.636 743.122 82.3793 743.047 82.062H742.949C742.697 82.4073 742.352 82.678 741.913 82.874C741.484 83.07 741.008 83.168 740.485 83.168ZM740.807 82.146C741.171 82.146 741.516 82.0713 741.843 81.922C742.17 81.7727 742.436 81.5533 742.641 81.264C742.846 80.9653 742.949 80.606 742.949 80.186V79.654C741.745 79.654 740.84 79.752 740.233 79.948C739.636 80.1347 739.337 80.494 739.337 81.026C739.337 81.4273 739.458 81.7167 739.701 81.894C739.953 82.062 740.322 82.146 740.807 82.146ZM746.262 72.878H747.494V83H746.262V72.878ZM753.43 73.396H755.404L757.7 79.948C757.831 80.3213 757.976 80.802 758.134 81.39H758.19C758.358 80.7367 758.498 80.256 758.61 79.948L760.92 73.396H762.88V83H761.55V76.658L761.578 74.866H761.48C761.406 75.2487 761.326 75.5567 761.242 75.79L758.638 83H757.532L754.97 75.79C754.896 75.594 754.816 75.286 754.732 74.866H754.648L754.676 76.658V83H753.43V73.396ZM768.046 83.168C766.861 83.168 765.979 82.8553 765.4 82.23C764.822 81.6047 764.532 80.634 764.532 79.318C764.532 78.002 764.822 77.0313 765.4 76.406C765.979 75.7807 766.861 75.468 768.046 75.468C769.11 75.468 769.904 75.7527 770.426 76.322C770.958 76.882 771.224 77.7873 771.224 79.038V79.654H765.806C765.853 80.5033 766.054 81.1333 766.408 81.544C766.772 81.9453 767.318 82.146 768.046 82.146C768.634 82.146 769.11 82.0107 769.474 81.74C769.838 81.4693 770.02 81.054 770.02 80.494H771.224C771.224 81.3527 770.926 82.0153 770.328 82.482C769.74 82.9393 768.98 83.168 768.046 83.168ZM769.936 78.632C769.936 77.204 769.306 76.49 768.046 76.49C767.346 76.49 766.819 76.658 766.464 76.994C766.119 77.33 765.909 77.876 765.834 78.632H769.936ZM775.168 83.168C774.234 83.168 773.516 82.8553 773.012 82.23C772.508 81.6047 772.256 80.634 772.256 79.318C772.256 78.03 772.503 77.0687 772.998 76.434C773.502 75.79 774.188 75.468 775.056 75.468C775.578 75.468 776.022 75.5473 776.386 75.706C776.75 75.8647 777.053 76.1213 777.296 76.476H777.38V72.878H778.612V83H777.688L777.534 82.006H777.45C777.207 82.3887 776.885 82.678 776.484 82.874C776.092 83.07 775.653 83.168 775.168 83.168ZM775.476 82.146C776.138 82.146 776.619 81.9127 776.918 81.446C777.226 80.9793 777.38 80.2887 777.38 79.374V79.318C777.38 78.3847 777.226 77.68 776.918 77.204C776.61 76.728 776.129 76.49 775.476 76.49C775.009 76.49 774.631 76.5833 774.342 76.77C774.062 76.9473 773.856 77.2413 773.726 77.652C773.595 78.0627 773.53 78.618 773.53 79.318V79.374C773.53 80.0647 773.595 80.6107 773.726 81.012C773.856 81.4133 774.062 81.7027 774.342 81.88C774.622 82.0573 775 82.146 775.476 82.146ZM780.483 72.878H781.701V74.208H780.483V72.878ZM780.483 75.636H781.715V83H780.483V75.636ZM785.588 83.168C784.954 83.168 784.389 83.0187 783.894 82.72C783.4 82.4213 783.152 81.88 783.152 81.096C783.152 80.1533 783.572 79.5093 784.412 79.164C785.252 78.8093 786.466 78.632 788.052 78.632V77.82C788.052 77.3907 787.931 77.064 787.688 76.84C787.446 76.6067 787.007 76.49 786.372 76.49C785.775 76.49 785.346 76.602 785.084 76.826C784.832 77.05 784.706 77.3253 784.706 77.652V77.82H783.516C783.507 77.764 783.502 77.6613 783.502 77.512C783.502 76.8587 783.773 76.3547 784.314 76C784.856 75.6453 785.579 75.468 786.484 75.468C787.399 75.468 788.094 75.6593 788.57 76.042C789.046 76.4247 789.284 76.966 789.284 77.666V81.656C789.284 81.824 789.331 81.95 789.424 82.034C789.518 82.1087 789.634 82.146 789.774 82.146H790.334V82.944C790.092 83.056 789.774 83.112 789.382 83.112C789.065 83.112 788.799 83.0187 788.584 82.832C788.37 82.636 788.225 82.3793 788.15 82.062H788.052C787.8 82.4073 787.455 82.678 787.016 82.874C786.587 83.07 786.111 83.168 785.588 83.168ZM785.91 82.146C786.274 82.146 786.62 82.0713 786.946 81.922C787.273 81.7727 787.539 81.5533 787.744 81.264C787.95 80.9653 788.052 80.606 788.052 80.186V79.654C786.848 79.654 785.943 79.752 785.336 79.948C784.739 80.1347 784.44 80.494 784.44 81.026C784.44 81.4273 784.562 81.7167 784.804 81.894C785.056 82.062 785.425 82.146 785.91 82.146ZM798.132 83.182C797.554 83.182 797.022 83.0747 796.536 82.86C796.051 82.636 795.664 82.3187 795.374 81.908C795.094 81.4973 794.954 81.012 794.954 80.452C794.954 79.78 795.141 79.192 795.514 78.688C795.897 78.1747 796.392 77.7733 796.998 77.484C796.541 76.924 796.312 76.2987 796.312 75.608C796.312 75.1413 796.42 74.726 796.634 74.362C796.858 73.998 797.162 73.718 797.544 73.522C797.927 73.3167 798.356 73.214 798.832 73.214C799.476 73.214 800.013 73.4007 800.442 73.774C800.881 74.138 801.1 74.6327 801.1 75.258C801.1 75.9113 800.895 76.4527 800.484 76.882C800.074 77.302 799.556 77.638 798.93 77.89L801.128 80.312C801.446 79.6773 801.604 78.968 801.604 78.184H802.766C802.766 79.3133 802.486 80.312 801.926 81.18L803.578 83H801.982L801.142 82.076C800.75 82.4307 800.298 82.706 799.784 82.902C799.28 83.0887 798.73 83.182 798.132 83.182ZM798.174 77.078C798.706 76.8633 799.122 76.6253 799.42 76.364C799.719 76.1027 799.868 75.7667 799.868 75.356C799.868 75.0107 799.756 74.74 799.532 74.544C799.318 74.348 799.061 74.25 798.762 74.25C798.436 74.25 798.151 74.362 797.908 74.586C797.666 74.81 797.544 75.1273 797.544 75.538C797.544 76.126 797.754 76.6393 798.174 77.078ZM798.244 82.16C799.103 82.16 799.836 81.8707 800.442 81.292L797.74 78.31C797.264 78.5247 796.886 78.8187 796.606 79.192C796.336 79.556 796.2 79.9667 796.2 80.424C796.2 80.9653 796.392 81.39 796.774 81.698C797.166 82.006 797.656 82.16 798.244 82.16ZM808.665 73.396H813.341C814.302 73.396 815.039 73.662 815.553 74.194C816.066 74.726 816.323 75.4353 816.323 76.322C816.323 77.2273 816.052 77.9553 815.511 78.506C814.979 79.0473 814.255 79.318 813.341 79.318H809.995V83H808.665V73.396ZM813.271 78.156C813.793 78.156 814.209 77.9927 814.517 77.666C814.825 77.3393 814.979 76.896 814.979 76.336C814.979 75.7667 814.834 75.328 814.545 75.02C814.255 74.712 813.831 74.558 813.271 74.558H809.995V78.156H813.271ZM820.788 83.168C819.659 83.168 818.81 82.8553 818.24 82.23C817.671 81.5953 817.386 80.6247 817.386 79.318C817.386 78.0113 817.671 77.0453 818.24 76.42C818.81 75.7853 819.659 75.468 820.788 75.468C821.918 75.468 822.767 75.7853 823.336 76.42C823.906 77.0453 824.19 78.0113 824.19 79.318C824.19 80.6247 823.906 81.5953 823.336 82.23C822.767 82.8553 821.918 83.168 820.788 83.168ZM820.788 82.146C821.535 82.146 822.076 81.9313 822.412 81.502C822.748 81.0633 822.916 80.354 822.916 79.374V79.262C822.916 78.282 822.748 77.5773 822.412 77.148C822.076 76.7093 821.535 76.49 820.788 76.49C820.042 76.49 819.5 76.7093 819.164 77.148C818.828 77.5773 818.66 78.282 818.66 79.262V79.374C818.66 80.354 818.828 81.0633 819.164 81.502C819.5 81.9313 820.042 82.146 820.788 82.146ZM825.614 75.636H826.552L826.692 76.742H826.776C826.916 76.378 827.126 76.0747 827.406 75.832C827.686 75.5893 828.054 75.468 828.512 75.468C828.764 75.468 828.983 75.5053 829.17 75.58V76.77H828.652C828.129 76.77 827.695 76.924 827.35 77.232C827.014 77.5307 826.846 78.002 826.846 78.646V83H825.614V75.636ZM831.942 83.154C831.438 83.154 831.069 83.0047 830.836 82.706C830.603 82.4073 830.486 82.0387 830.486 81.6V76.658H829.59V75.636H830.5L830.766 73.592H831.718V75.636H832.964V76.658H831.718V81.488C831.718 81.9267 831.923 82.146 832.334 82.146H832.964V82.958C832.843 83.014 832.684 83.0607 832.488 83.098C832.292 83.1353 832.11 83.154 831.942 83.154ZM837.126 83.168C835.997 83.168 835.148 82.8553 834.578 82.23C834.009 81.5953 833.724 80.6247 833.724 79.318C833.724 78.0113 834.009 77.0453 834.578 76.42C835.148 75.7853 835.997 75.468 837.126 75.468C838.256 75.468 839.105 75.7853 839.674 76.42C840.244 77.0453 840.528 78.0113 840.528 79.318C840.528 80.6247 840.244 81.5953 839.674 82.23C839.105 82.8553 838.256 83.168 837.126 83.168ZM837.126 82.146C837.873 82.146 838.414 81.9313 838.75 81.502C839.086 81.0633 839.254 80.354 839.254 79.374V79.262C839.254 78.282 839.086 77.5773 838.75 77.148C838.414 76.7093 837.873 76.49 837.126 76.49C836.38 76.49 835.838 76.7093 835.502 77.148C835.166 77.5773 834.998 78.282 834.998 79.262V79.374C834.998 80.354 835.166 81.0633 835.502 81.502C835.838 81.9313 836.38 82.146 837.126 82.146ZM842.218 76.658H841.14V75.636H842.218V74.46C842.218 73.9747 842.339 73.5733 842.582 73.256C842.824 72.9293 843.235 72.766 843.814 72.766C844 72.766 844.187 72.7847 844.374 72.822C844.57 72.85 844.733 72.8873 844.864 72.934V73.788H844.136C843.678 73.788 843.45 74.012 843.45 74.46V75.636H844.864V76.658H843.45V83H842.218V76.658ZM848.802 83.168C847.673 83.168 846.823 82.8553 846.254 82.23C845.685 81.5953 845.4 80.6247 845.4 79.318C845.4 78.0113 845.685 77.0453 846.254 76.42C846.823 75.7853 847.673 75.468 848.802 75.468C849.931 75.468 850.781 75.7853 851.35 76.42C851.919 77.0453 852.204 78.0113 852.204 79.318C852.204 80.6247 851.919 81.5953 851.35 82.23C850.781 82.8553 849.931 83.168 848.802 83.168ZM848.802 82.146C849.549 82.146 850.09 81.9313 850.426 81.502C850.762 81.0633 850.93 80.354 850.93 79.374V79.262C850.93 78.282 850.762 77.5773 850.426 77.148C850.09 76.7093 849.549 76.49 848.802 76.49C848.055 76.49 847.514 76.7093 847.178 77.148C846.842 77.5773 846.674 78.282 846.674 79.262V79.374C846.674 80.354 846.842 81.0633 847.178 81.502C847.514 81.9313 848.055 82.146 848.802 82.146ZM853.627 72.878H854.859V83H853.627V72.878ZM856.731 72.878H857.949V74.208H856.731V72.878ZM856.731 75.636H857.963V83H856.731V75.636ZM862.788 83.168C861.659 83.168 860.81 82.8553 860.24 82.23C859.671 81.5953 859.386 80.6247 859.386 79.318C859.386 78.0113 859.671 77.0453 860.24 76.42C860.81 75.7853 861.659 75.468 862.788 75.468C863.918 75.468 864.767 75.7853 865.336 76.42C865.906 77.0453 866.19 78.0113 866.19 79.318C866.19 80.6247 865.906 81.5953 865.336 82.23C864.767 82.8553 863.918 83.168 862.788 83.168ZM862.788 82.146C863.535 82.146 864.076 81.9313 864.412 81.502C864.748 81.0633 864.916 80.354 864.916 79.374V79.262C864.916 78.282 864.748 77.5773 864.412 77.148C864.076 76.7093 863.535 76.49 862.788 76.49C862.042 76.49 861.5 76.7093 861.164 77.148C860.828 77.5773 860.66 78.282 860.66 79.262V79.374C860.66 80.354 860.828 81.0633 861.164 81.502C861.5 81.9313 862.042 82.146 862.788 82.146Z" fill="white"/>
<circle cx="788" cy="17" r="13" fill="#152A61"/>
<path d="M788.488 23.168C787.462 23.168 786.64 22.888 786.024 22.328C785.418 21.7587 785.114 20.9887 785.114 20.018H787.088C787.088 20.5127 787.21 20.9 787.452 21.18C787.704 21.46 788.05 21.6 788.488 21.6C788.918 21.6 789.254 21.4553 789.496 21.166C789.748 20.8673 789.874 20.4333 789.874 19.864C789.874 19.3413 789.748 18.9447 789.496 18.674C789.244 18.4033 788.913 18.268 788.502 18.268C788.222 18.268 787.984 18.3287 787.788 18.45C787.592 18.5713 787.415 18.7347 787.256 18.94L785.436 18.716L785.814 13.396H791.372V15.104H787.508L787.382 17.232C787.606 17.092 787.849 16.98 788.11 16.896C788.372 16.8027 788.689 16.756 789.062 16.756C789.884 16.756 790.551 17.022 791.064 17.554C791.587 18.0767 791.848 18.8467 791.848 19.864C791.848 20.9093 791.55 21.7213 790.952 22.3C790.355 22.8787 789.534 23.168 788.488 23.168Z" fill="white"/>
<path d="M956.944 73.396H963.748V74.558H958.274V77.61H963.244V78.772H958.274V83H956.944V73.396ZM965.334 72.878H966.552V74.208H965.334V72.878ZM965.334 75.636H966.566V83H965.334V75.636ZM968.438 75.636H969.376L969.516 76.63H969.614C970.155 75.8553 970.981 75.468 972.092 75.468C972.829 75.468 973.394 75.6687 973.786 76.07C974.187 76.462 974.388 77.0967 974.388 77.974V83H973.156V78.058C973.156 77.47 973.025 77.064 972.764 76.84C972.503 76.6067 972.125 76.49 971.63 76.49C971.275 76.49 970.949 76.5787 970.65 76.756C970.351 76.924 970.113 77.1713 969.936 77.498C969.759 77.8247 969.67 78.2073 969.67 78.646V83H968.438V75.636ZM976.217 72.878H977.435V74.208H976.217V72.878ZM976.217 75.636H977.449V83H976.217V75.636ZM981.841 83.168C981.159 83.168 980.59 83.07 980.133 82.874C979.685 82.6687 979.353 82.4027 979.139 82.076C978.924 81.7493 978.817 81.3947 978.817 81.012C978.817 80.9 978.817 80.8253 978.817 80.788C978.826 80.7413 978.831 80.7133 978.831 80.704H980.049V80.844C980.049 81.2827 980.221 81.614 980.567 81.838C980.912 82.0527 981.36 82.16 981.911 82.16C982.387 82.16 982.779 82.0667 983.087 81.88C983.404 81.684 983.563 81.4133 983.563 81.068C983.563 80.7973 983.474 80.578 983.297 80.41C983.119 80.2327 982.9 80.0973 982.639 80.004C982.377 79.9013 982.023 79.794 981.575 79.682C981.033 79.542 980.59 79.402 980.245 79.262C979.909 79.122 979.619 78.9167 979.377 78.646C979.143 78.366 979.027 78.0067 979.027 77.568C979.027 76.924 979.288 76.4153 979.811 76.042C980.343 75.6593 981.057 75.468 981.953 75.468C982.513 75.468 982.998 75.5613 983.409 75.748C983.819 75.9253 984.127 76.168 984.333 76.476C984.547 76.7747 984.655 77.1107 984.655 77.484L984.641 77.75H983.437V77.624C983.437 77.2973 983.306 77.0267 983.045 76.812C982.793 76.5973 982.382 76.49 981.813 76.49C981.253 76.49 980.861 76.5927 980.637 76.798C980.413 76.994 980.301 77.2227 980.301 77.484C980.301 77.6987 980.38 77.876 980.539 78.016C980.697 78.156 980.893 78.268 981.127 78.352C981.36 78.436 981.687 78.5293 982.107 78.632C982.685 78.7813 983.157 78.9307 983.521 79.08C983.885 79.22 984.193 79.4393 984.445 79.738C984.706 80.0273 984.837 80.4147 984.837 80.9C984.837 81.656 984.561 82.2253 984.011 82.608C983.469 82.9813 982.746 83.168 981.841 83.168ZM986.321 72.878H987.553V76.462H987.651C988.164 75.7993 988.939 75.468 989.975 75.468C991.505 75.468 992.271 76.3033 992.271 77.974V83H991.039V78.058C991.039 77.47 990.908 77.064 990.647 76.84C990.385 76.6067 990.007 76.49 989.513 76.49C989.158 76.49 988.831 76.5787 988.533 76.756C988.234 76.924 987.996 77.1713 987.819 77.498C987.641 77.8247 987.553 78.2073 987.553 78.646V83H986.321V72.878Z" fill="white"/>
<circle cx="976" cy="17" r="13" fill="#152A61"/>
<path d="M975.74 22.168C974.574 22.168 973.692 21.8133 973.094 21.104C972.497 20.3853 972.198 19.1767 972.198 17.478C972.198 16.1807 972.334 15.1447 972.604 14.37C972.875 13.5953 973.262 13.0447 973.766 12.718C974.27 12.3913 974.9 12.228 975.656 12.228C976.664 12.228 977.416 12.5033 977.91 13.054C978.414 13.6047 978.666 14.3327 978.666 15.238H976.72C976.72 14.762 976.632 14.4027 976.454 14.16C976.277 13.908 975.988 13.782 975.586 13.782C975.185 13.782 974.882 13.894 974.676 14.118C974.48 14.3327 974.35 14.636 974.284 15.028C974.219 15.42 974.182 15.9473 974.172 16.61C974.396 16.3953 974.676 16.218 975.012 16.078C975.358 15.9287 975.731 15.854 976.132 15.854C977.084 15.854 977.794 16.1387 978.26 16.708C978.736 17.2773 978.974 18.0427 978.974 19.004C978.974 19.6387 978.834 20.1987 978.554 20.684C978.274 21.16 977.887 21.5287 977.392 21.79C976.907 22.042 976.356 22.168 975.74 22.168ZM975.656 20.6C976.104 20.6 976.44 20.4553 976.664 20.166C976.888 19.8673 977 19.48 977 19.004C977 18.5 976.888 18.1033 976.664 17.814C976.44 17.5247 976.104 17.38 975.656 17.38C975.208 17.38 974.868 17.5247 974.634 17.814C974.401 18.1033 974.284 18.5 974.284 19.004C974.284 19.48 974.401 19.8673 974.634 20.166C974.868 20.4553 975.208 20.6 975.656 20.6Z" fill="white"/>
</svg>
