<svg width="1025" height="94" viewBox="0 0 1025 94" fill="none" xmlns="http://www.w3.org/2000/svg">
<line x1="47" y1="20.5" x2="207" y2="20.5" stroke="#B20000" stroke-width="3"/>
<line x1="241" y1="20.5" x2="396" y2="20.5" stroke="#B20000" stroke-width="3"/>
<line x1="428" y1="20.5" x2="583" y2="20.5" stroke="#B20000" stroke-width="3"/>
<line x1="617" y1="20.5" x2="777" y2="20.5" stroke="#152A61" stroke-width="3"/>
<line x1="800" y1="20.5" x2="965" y2="20.5" stroke="#152A61" stroke-width="3"/>
<path d="M10.7236 84.168C9.17432 84.168 8.00765 83.7573 7.22365 82.936C6.43965 82.1053 6.04765 80.8593 6.04765 79.198C6.04765 77.5367 6.43965 76.2953 7.22365 75.474C8.00765 74.6433 9.17432 74.228 10.7236 74.228C11.9743 74.228 12.973 74.5407 13.7196 75.166C14.4756 75.782 14.8536 76.6827 14.8536 77.868H13.4956C13.4956 77.0467 13.2483 76.426 12.7536 76.006C12.2683 75.5767 11.5916 75.362 10.7236 75.362C9.59432 75.362 8.76365 75.6607 8.23165 76.258C7.69965 76.8553 7.42898 77.826 7.41965 79.17V79.198C7.41965 80.5513 7.68565 81.5313 8.21765 82.138C8.74965 82.7353 9.58498 83.034 10.7236 83.034C11.6103 83.034 12.301 82.824 12.7956 82.404C13.2996 81.984 13.5516 81.368 13.5516 80.556H14.8536C14.8536 81.7507 14.4803 82.6513 13.7336 83.258C12.987 83.8647 11.9836 84.168 10.7236 84.168ZM16.4312 73.878H17.6632V77.462H17.7612C18.2745 76.7993 19.0492 76.468 20.0852 76.468C21.6158 76.468 22.3812 77.3033 22.3812 78.974V84H21.1492V79.058C21.1492 78.47 21.0185 78.064 20.7572 77.84C20.4958 77.6067 20.1178 77.49 19.6232 77.49C19.2685 77.49 18.9418 77.5787 18.6432 77.756C18.3445 77.924 18.1065 78.1713 17.9292 78.498C17.7518 78.8247 17.6632 79.2073 17.6632 79.646V84H16.4312V73.878ZM27.1645 84.168C26.0351 84.168 25.1858 83.8553 24.6165 83.23C24.0471 82.5953 23.7625 81.6247 23.7625 80.318C23.7625 79.0113 24.0471 78.0453 24.6165 77.42C25.1858 76.7853 26.0351 76.468 27.1645 76.468C28.2938 76.468 29.1431 76.7853 29.7125 77.42C30.2818 78.0453 30.5665 79.0113 30.5665 80.318C30.5665 81.6247 30.2818 82.5953 29.7125 83.23C29.1431 83.8553 28.2938 84.168 27.1645 84.168ZM27.1645 83.146C27.9111 83.146 28.4525 82.9313 28.7885 82.502C29.1245 82.0633 29.2925 81.354 29.2925 80.374V80.262C29.2925 79.282 29.1245 78.5773 28.7885 78.148C28.4525 77.7093 27.9111 77.49 27.1645 77.49C26.4178 77.49 25.8765 77.7093 25.5405 78.148C25.2045 78.5773 25.0365 79.282 25.0365 80.262V80.374C25.0365 81.354 25.2045 82.0633 25.5405 82.502C25.8765 82.9313 26.4178 83.146 27.1645 83.146ZM34.9438 84.168C33.8144 84.168 32.9651 83.8553 32.3958 83.23C31.8264 82.5953 31.5418 81.6247 31.5418 80.318C31.5418 79.0113 31.8264 78.0453 32.3958 77.42C32.9651 76.7853 33.8144 76.468 34.9438 76.468C36.0731 76.468 36.9224 76.7853 37.4918 77.42C38.0611 78.0453 38.3458 79.0113 38.3458 80.318C38.3458 81.6247 38.0611 82.5953 37.4918 83.23C36.9224 83.8553 36.0731 84.168 34.9438 84.168ZM34.9438 83.146C35.6904 83.146 36.2318 82.9313 36.5678 82.502C36.9038 82.0633 37.0718 81.354 37.0718 80.374V80.262C37.0718 79.282 36.9038 78.5773 36.5678 78.148C36.2318 77.7093 35.6904 77.49 34.9438 77.49C34.1971 77.49 33.6558 77.7093 33.3198 78.148C32.9838 78.5773 32.8158 79.282 32.8158 80.262V80.374C32.8158 81.354 32.9838 82.0633 33.3198 82.502C33.6558 82.9313 34.1971 83.146 34.9438 83.146ZM42.2891 84.168C41.6077 84.168 41.0384 84.07 40.5811 83.874C40.1331 83.6687 39.8017 83.4027 39.5871 83.076C39.3724 82.7493 39.2651 82.3947 39.2651 82.012C39.2651 81.9 39.2651 81.8253 39.2651 81.788C39.2744 81.7413 39.2791 81.7133 39.2791 81.704H40.4971V81.844C40.4971 82.2827 40.6697 82.614 41.0151 82.838C41.3604 83.0527 41.8084 83.16 42.3591 83.16C42.8351 83.16 43.2271 83.0667 43.5351 82.88C43.8524 82.684 44.0111 82.4133 44.0111 82.068C44.0111 81.7973 43.9224 81.578 43.7451 81.41C43.5677 81.2327 43.3484 81.0973 43.0871 81.004C42.8257 80.9013 42.4711 80.794 42.0231 80.682C41.4817 80.542 41.0384 80.402 40.6931 80.262C40.3571 80.122 40.0677 79.9167 39.8251 79.646C39.5917 79.366 39.4751 79.0067 39.4751 78.568C39.4751 77.924 39.7364 77.4153 40.2591 77.042C40.7911 76.6593 41.5051 76.468 42.4011 76.468C42.9611 76.468 43.4464 76.5613 43.8571 76.748C44.2677 76.9253 44.5757 77.168 44.7811 77.476C44.9957 77.7747 45.1031 78.1107 45.1031 78.484L45.0891 78.75H43.8851V78.624C43.8851 78.2973 43.7544 78.0267 43.4931 77.812C43.2411 77.5973 42.8304 77.49 42.2611 77.49C41.7011 77.49 41.3091 77.5927 41.0851 77.798C40.8611 77.994 40.7491 78.2227 40.7491 78.484C40.7491 78.6987 40.8284 78.876 40.9871 79.016C41.1457 79.156 41.3417 79.268 41.5751 79.352C41.8084 79.436 42.1351 79.5293 42.5551 79.632C43.1337 79.7813 43.6051 79.9307 43.9691 80.08C44.3331 80.22 44.6411 80.4393 44.8931 80.738C45.1544 81.0273 45.2851 81.4147 45.2851 81.9C45.2851 82.656 45.0097 83.2253 44.4591 83.608C43.9177 83.9813 43.1944 84.168 42.2891 84.168ZM49.8911 84.168C48.7057 84.168 47.8237 83.8553 47.2451 83.23C46.6664 82.6047 46.3771 81.634 46.3771 80.318C46.3771 79.002 46.6664 78.0313 47.2451 77.406C47.8237 76.7807 48.7057 76.468 49.8911 76.468C50.9551 76.468 51.7484 76.7527 52.2711 77.322C52.8031 77.882 53.0691 78.7873 53.0691 80.038V80.654H47.6511C47.6977 81.5033 47.8984 82.1333 48.2531 82.544C48.6171 82.9453 49.1631 83.146 49.8911 83.146C50.4791 83.146 50.9551 83.0107 51.3191 82.74C51.6831 82.4693 51.8651 82.054 51.8651 81.494H53.0691C53.0691 82.3527 52.7704 83.0153 52.1731 83.482C51.5851 83.9393 50.8244 84.168 49.8911 84.168ZM51.7811 79.632C51.7811 78.204 51.1511 77.49 49.8911 77.49C49.1911 77.49 48.6637 77.658 48.3091 77.994C47.9637 78.33 47.7537 78.876 47.6791 79.632H51.7811Z" fill="white"/>
<circle cx="30" cy="20" r="13" fill="#B20000"/>
<circle cx="30" cy="20" r="17.5" stroke="#B20000" stroke-width="3"/>
<circle cx="224" cy="20" r="17.5" stroke="#B20000" stroke-width="3"/>
<circle cx="412" cy="20" r="17.5" stroke="#B20000" stroke-width="3"/>
<circle cx="601" cy="19" r="17.5" stroke="#B20000" stroke-width="3"/>
<path d="M26.8004 23.432H29.0544V17.72H26.7864V16.53C27.2064 16.4833 27.7197 16.3527 28.3264 16.138C28.9424 15.9233 29.493 15.676 29.9784 15.396H30.9724V23.432H33.0304V25H26.8004V23.432Z" fill="white"/>
<path d="M181.268 74.396H185.944C186.905 74.396 187.643 74.662 188.156 75.194C188.669 75.726 188.926 76.4353 188.926 77.322C188.926 78.2273 188.655 78.9553 188.114 79.506C187.582 80.0473 186.859 80.318 185.944 80.318H182.598V84H181.268V74.396ZM185.874 79.156C186.397 79.156 186.812 78.9927 187.12 78.666C187.428 78.3393 187.582 77.896 187.582 77.336C187.582 76.7667 187.437 76.328 187.148 76.02C186.859 75.712 186.434 75.558 185.874 75.558H182.598V79.156H185.874ZM193.56 84.168C192.375 84.168 191.493 83.8553 190.914 83.23C190.335 82.6047 190.046 81.634 190.046 80.318C190.046 79.002 190.335 78.0313 190.914 77.406C191.493 76.7807 192.375 76.468 193.56 76.468C194.624 76.468 195.417 76.7527 195.94 77.322C196.472 77.882 196.738 78.7873 196.738 80.038V80.654H191.32C191.367 81.5033 191.567 82.1333 191.922 82.544C192.286 82.9453 192.832 83.146 193.56 83.146C194.148 83.146 194.624 83.0107 194.988 82.74C195.352 82.4693 195.534 82.054 195.534 81.494H196.738C196.738 82.3527 196.439 83.0153 195.842 83.482C195.254 83.9393 194.493 84.168 193.56 84.168ZM195.45 79.632C195.45 78.204 194.82 77.49 193.56 77.49C192.86 77.49 192.333 77.658 191.978 77.994C191.633 78.33 191.423 78.876 191.348 79.632H195.45ZM198.217 76.636H199.155L199.295 77.742H199.379C199.519 77.378 199.729 77.0747 200.009 76.832C200.289 76.5893 200.658 76.468 201.115 76.468C201.367 76.468 201.587 76.5053 201.773 76.58V77.77H201.255C200.733 77.77 200.299 77.924 199.953 78.232C199.617 78.5307 199.449 79.002 199.449 79.646V84H198.217V76.636ZM205.399 84.168C204.718 84.168 204.149 84.07 203.691 83.874C203.243 83.6687 202.912 83.4027 202.697 83.076C202.483 82.7493 202.375 82.3947 202.375 82.012C202.375 81.9 202.375 81.8253 202.375 81.788C202.385 81.7413 202.389 81.7133 202.389 81.704H203.607V81.844C203.607 82.2827 203.78 82.614 204.125 82.838C204.471 83.0527 204.919 83.16 205.469 83.16C205.945 83.16 206.337 83.0667 206.645 82.88C206.963 82.684 207.121 82.4133 207.121 82.068C207.121 81.7973 207.033 81.578 206.855 81.41C206.678 81.2327 206.459 81.0973 206.197 81.004C205.936 80.9013 205.581 80.794 205.133 80.682C204.592 80.542 204.149 80.402 203.803 80.262C203.467 80.122 203.178 79.9167 202.935 79.646C202.702 79.366 202.585 79.0067 202.585 78.568C202.585 77.924 202.847 77.4153 203.369 77.042C203.901 76.6593 204.615 76.468 205.511 76.468C206.071 76.468 206.557 76.5613 206.967 76.748C207.378 76.9253 207.686 77.168 207.891 77.476C208.106 77.7747 208.213 78.1107 208.213 78.484L208.199 78.75H206.995V78.624C206.995 78.2973 206.865 78.0267 206.603 77.812C206.351 77.5973 205.941 77.49 205.371 77.49C204.811 77.49 204.419 77.5927 204.195 77.798C203.971 77.994 203.859 78.2227 203.859 78.484C203.859 78.6987 203.939 78.876 204.097 79.016C204.256 79.156 204.452 79.268 204.685 79.352C204.919 79.436 205.245 79.5293 205.665 79.632C206.244 79.7813 206.715 79.9307 207.079 80.08C207.443 80.22 207.751 80.4393 208.003 80.738C208.265 81.0273 208.395 81.4147 208.395 81.9C208.395 82.656 208.12 83.2253 207.569 83.608C207.028 83.9813 206.305 84.168 205.399 84.168ZM212.833 84.168C211.704 84.168 210.855 83.8553 210.285 83.23C209.716 82.5953 209.431 81.6247 209.431 80.318C209.431 79.0113 209.716 78.0453 210.285 77.42C210.855 76.7853 211.704 76.468 212.833 76.468C213.963 76.468 214.812 76.7853 215.381 77.42C215.951 78.0453 216.235 79.0113 216.235 80.318C216.235 81.6247 215.951 82.5953 215.381 83.23C214.812 83.8553 213.963 84.168 212.833 84.168ZM212.833 83.146C213.58 83.146 214.121 82.9313 214.457 82.502C214.793 82.0633 214.961 81.354 214.961 80.374V80.262C214.961 79.282 214.793 78.5773 214.457 78.148C214.121 77.7093 213.58 77.49 212.833 77.49C212.087 77.49 211.545 77.7093 211.209 78.148C210.873 78.5773 210.705 79.282 210.705 80.262V80.374C210.705 81.354 210.873 82.0633 211.209 82.502C211.545 82.9313 212.087 83.146 212.833 83.146ZM217.659 76.636H218.597L218.737 77.63H218.835C219.376 76.8553 220.202 76.468 221.313 76.468C222.05 76.468 222.615 76.6687 223.007 77.07C223.408 77.462 223.609 78.0967 223.609 78.974V84H222.377V79.058C222.377 78.47 222.246 78.064 221.985 77.84C221.723 77.6067 221.345 77.49 220.851 77.49C220.496 77.49 220.169 77.5787 219.871 77.756C219.572 77.924 219.334 78.1713 219.157 78.498C218.979 78.8247 218.891 79.2073 218.891 79.646V84H217.659V76.636ZM227.44 84.168C226.805 84.168 226.241 84.0187 225.746 83.72C225.251 83.4213 225.004 82.88 225.004 82.096C225.004 81.1533 225.424 80.5093 226.264 80.164C227.104 79.8093 228.317 79.632 229.904 79.632V78.82C229.904 78.3907 229.783 78.064 229.54 77.84C229.297 77.6067 228.859 77.49 228.224 77.49C227.627 77.49 227.197 77.602 226.936 77.826C226.684 78.05 226.558 78.3253 226.558 78.652V78.82H225.368C225.359 78.764 225.354 78.6613 225.354 78.512C225.354 77.8587 225.625 77.3547 226.166 77C226.707 76.6453 227.431 76.468 228.336 76.468C229.251 76.468 229.946 76.6593 230.422 77.042C230.898 77.4247 231.136 77.966 231.136 78.666V82.656C231.136 82.824 231.183 82.95 231.276 83.034C231.369 83.1087 231.486 83.146 231.626 83.146H232.186V83.944C231.943 84.056 231.626 84.112 231.234 84.112C230.917 84.112 230.651 84.0187 230.436 83.832C230.221 83.636 230.077 83.3793 230.002 83.062H229.904C229.652 83.4073 229.307 83.678 228.868 83.874C228.439 84.07 227.963 84.168 227.44 84.168ZM227.762 83.146C228.126 83.146 228.471 83.0713 228.798 82.922C229.125 82.7727 229.391 82.5533 229.596 82.264C229.801 81.9653 229.904 81.606 229.904 81.186V80.654C228.7 80.654 227.795 80.752 227.188 80.948C226.591 81.1347 226.292 81.494 226.292 82.026C226.292 82.4273 226.413 82.7167 226.656 82.894C226.908 83.062 227.277 83.146 227.762 83.146ZM233.217 73.878H234.449V84H233.217V73.878ZM240.385 74.396H243.941C245.481 74.396 246.667 74.7927 247.497 75.586C248.328 76.37 248.743 77.574 248.743 79.198C248.743 80.822 248.328 82.0307 247.497 82.824C246.667 83.608 245.481 84 243.941 84H240.385V74.396ZM243.941 82.838C245.052 82.838 245.897 82.558 246.475 81.998C247.063 81.438 247.362 80.514 247.371 79.226V79.198C247.371 77.9007 247.077 76.972 246.489 76.412C245.911 75.8427 245.061 75.558 243.941 75.558H241.715V82.838H243.941ZM252.323 84.168C251.688 84.168 251.123 84.0187 250.629 83.72C250.134 83.4213 249.887 82.88 249.887 82.096C249.887 81.1533 250.307 80.5093 251.147 80.164C251.987 79.8093 253.2 79.632 254.787 79.632V78.82C254.787 78.3907 254.665 78.064 254.423 77.84C254.18 77.6067 253.741 77.49 253.107 77.49C252.509 77.49 252.08 77.602 251.819 77.826C251.567 78.05 251.441 78.3253 251.441 78.652V78.82H250.251C250.241 78.764 250.237 78.6613 250.237 78.512C250.237 77.8587 250.507 77.3547 251.049 77C251.59 76.6453 252.313 76.468 253.219 76.468C254.133 76.468 254.829 76.6593 255.305 77.042C255.781 77.4247 256.019 77.966 256.019 78.666V82.656C256.019 82.824 256.065 82.95 256.159 83.034C256.252 83.1087 256.369 83.146 256.509 83.146H257.069V83.944C256.826 84.056 256.509 84.112 256.117 84.112C255.799 84.112 255.533 84.0187 255.319 83.832C255.104 83.636 254.959 83.3793 254.885 83.062H254.787C254.535 83.4073 254.189 83.678 253.751 83.874C253.321 84.07 252.845 84.168 252.323 84.168ZM252.645 83.146C253.009 83.146 253.354 83.0713 253.681 82.922C254.007 82.7727 254.273 82.5533 254.479 82.264C254.684 81.9653 254.787 81.606 254.787 81.186V80.654C253.583 80.654 252.677 80.752 252.071 80.948C251.473 81.1347 251.175 81.494 251.175 82.026C251.175 82.4273 251.296 82.7167 251.539 82.894C251.791 83.062 252.159 83.146 252.645 83.146ZM259.766 84.154C259.262 84.154 258.893 84.0047 258.66 83.706C258.427 83.4073 258.31 83.0387 258.31 82.6V77.658H257.414V76.636H258.324L258.59 74.592H259.542V76.636H260.788V77.658H259.542V82.488C259.542 82.9267 259.747 83.146 260.158 83.146H260.788V83.958C260.667 84.014 260.508 84.0607 260.312 84.098C260.116 84.1353 259.934 84.154 259.766 84.154ZM263.999 84.168C263.364 84.168 262.799 84.0187 262.305 83.72C261.81 83.4213 261.563 82.88 261.563 82.096C261.563 81.1533 261.983 80.5093 262.823 80.164C263.663 79.8093 264.876 79.632 266.463 79.632V78.82C266.463 78.3907 266.341 78.064 266.099 77.84C265.856 77.6067 265.417 77.49 264.783 77.49C264.185 77.49 263.756 77.602 263.495 77.826C263.243 78.05 263.117 78.3253 263.117 78.652V78.82H261.927C261.917 78.764 261.913 78.6613 261.913 78.512C261.913 77.8587 262.183 77.3547 262.725 77C263.266 76.6453 263.989 76.468 264.895 76.468C265.809 76.468 266.505 76.6593 266.981 77.042C267.457 77.4247 267.695 77.966 267.695 78.666V82.656C267.695 82.824 267.741 82.95 267.835 83.034C267.928 83.1087 268.045 83.146 268.185 83.146H268.745V83.944C268.502 84.056 268.185 84.112 267.793 84.112C267.475 84.112 267.209 84.0187 266.995 83.832C266.78 83.636 266.635 83.3793 266.561 83.062H266.463C266.211 83.4073 265.865 83.678 265.427 83.874C264.997 84.07 264.521 84.168 263.999 84.168ZM264.321 83.146C264.685 83.146 265.03 83.0713 265.357 82.922C265.683 82.7727 265.949 82.5533 266.155 82.264C266.36 81.9653 266.463 81.606 266.463 81.186V80.654C265.259 80.654 264.353 80.752 263.747 80.948C263.149 81.1347 262.851 81.494 262.851 82.026C262.851 82.4273 262.972 82.7167 263.215 82.894C263.467 83.062 263.835 83.146 264.321 83.146Z" fill="white"/>
<circle cx="224" cy="20" r="13" fill="#B20000"/>
<path d="M220.212 24.496C220.212 23.964 220.329 23.488 220.562 23.068C220.796 22.6387 221.08 22.2653 221.416 21.948C221.762 21.6307 222.21 21.2713 222.76 20.87C223.236 20.506 223.61 20.2027 223.88 19.96C224.16 19.7173 224.394 19.4513 224.58 19.162C224.814 18.798 224.93 18.3873 224.93 17.93C224.93 17.6313 224.818 17.37 224.594 17.146C224.38 16.9127 224.067 16.796 223.656 16.796C222.732 16.796 222.27 17.2393 222.27 18.126V18.7H220.366C220.329 18.532 220.31 18.3453 220.31 18.14C220.31 17.1693 220.632 16.4413 221.276 15.956C221.93 15.4707 222.751 15.228 223.74 15.228C224.608 15.228 225.276 15.396 225.742 15.732C226.209 16.068 226.512 16.446 226.652 16.866C226.802 17.286 226.876 17.678 226.876 18.042C226.876 18.686 226.732 19.26 226.442 19.764C226.153 20.2587 225.808 20.6787 225.406 21.024C225.014 21.36 224.524 21.7287 223.936 22.13C223.488 22.438 223.152 22.69 222.928 22.886C222.77 23.026 222.653 23.1613 222.578 23.292H226.932V25H220.212V24.496Z" fill="white"/>
<path d="M562.874 74.396H564.568L568.292 84H566.878L565.912 81.438H561.46L560.522 84H559.15L562.874 74.396ZM565.478 80.276L564.358 77.28L563.714 75.544H563.644L563.014 77.252L561.894 80.276H565.478ZM569.328 76.636H570.266L570.406 77.742H570.49C570.63 77.378 570.84 77.0747 571.12 76.832C571.4 76.5893 571.768 76.468 572.226 76.468C572.478 76.468 572.697 76.5053 572.884 76.58V77.77H572.366C571.843 77.77 571.409 77.924 571.064 78.232C570.728 78.5307 570.56 79.002 570.56 79.646V84H569.328V76.636ZM575.656 84.154C575.152 84.154 574.783 84.0047 574.55 83.706C574.316 83.4073 574.2 83.0387 574.2 82.6V77.658H573.304V76.636H574.214L574.48 74.592H575.432V76.636H576.678V77.658H575.432V82.488C575.432 82.9267 575.637 83.146 576.048 83.146H576.678V83.958C576.556 84.014 576.398 84.0607 576.202 84.098C576.006 84.1353 575.824 84.154 575.656 84.154ZM577.018 76.636H578.292L579.426 80.808C579.501 81.06 579.646 81.6387 579.86 82.544H579.93L580.294 80.808L581.26 76.636H582.758L583.78 80.808C583.846 81.06 583.972 81.6387 584.158 82.544H584.228C584.424 81.676 584.564 81.0973 584.648 80.808L585.768 76.636H586.972L584.76 84H583.416L582.352 79.604L582.016 78.092H581.96C581.811 78.8387 581.704 79.3427 581.638 79.604L580.588 84H579.23L577.018 76.636ZM590.944 84.168C589.814 84.168 588.965 83.8553 588.396 83.23C587.826 82.5953 587.542 81.6247 587.542 80.318C587.542 79.0113 587.826 78.0453 588.396 77.42C588.965 76.7853 589.814 76.468 590.944 76.468C592.073 76.468 592.922 76.7853 593.492 77.42C594.061 78.0453 594.346 79.0113 594.346 80.318C594.346 81.6247 594.061 82.5953 593.492 83.23C592.922 83.8553 592.073 84.168 590.944 84.168ZM590.944 83.146C591.69 83.146 592.232 82.9313 592.568 82.502C592.904 82.0633 593.072 81.354 593.072 80.374V80.262C593.072 79.282 592.904 78.5773 592.568 78.148C592.232 77.7093 591.69 77.49 590.944 77.49C590.197 77.49 589.656 77.7093 589.32 78.148C588.984 78.5773 588.816 79.282 588.816 80.262V80.374C588.816 81.354 588.984 82.0633 589.32 82.502C589.656 82.9313 590.197 83.146 590.944 83.146ZM595.769 76.636H596.707L596.847 77.742H596.931C597.071 77.378 597.281 77.0747 597.561 76.832C597.841 76.5893 598.21 76.468 598.667 76.468C598.919 76.468 599.138 76.5053 599.325 76.58V77.77H598.807C598.284 77.77 597.85 77.924 597.505 78.232C597.169 78.5307 597.001 79.002 597.001 79.646V84H595.769V76.636ZM600.431 73.878H601.663V80.248L604.785 76.636H606.311L603.777 79.534L606.451 84H605.023L603.007 80.416L601.663 81.69V84H600.431V73.878ZM611.496 74.396H615.052C616.592 74.396 617.777 74.7927 618.608 75.586C619.438 76.37 619.854 77.574 619.854 79.198C619.854 80.822 619.438 82.0307 618.608 82.824C617.777 83.608 616.592 84 615.052 84H611.496V74.396ZM615.052 82.838C616.162 82.838 617.007 82.558 617.586 81.998C618.174 81.438 618.472 80.514 618.482 79.226V79.198C618.482 77.9007 618.188 76.972 617.6 76.412C617.021 75.8427 616.172 75.558 615.052 75.558H612.826V82.838H615.052ZM623.433 84.168C622.798 84.168 622.234 84.0187 621.739 83.72C621.244 83.4213 620.997 82.88 620.997 82.096C620.997 81.1533 621.417 80.5093 622.257 80.164C623.097 79.8093 624.31 79.632 625.897 79.632V78.82C625.897 78.3907 625.776 78.064 625.533 77.84C625.29 77.6067 624.852 77.49 624.217 77.49C623.62 77.49 623.19 77.602 622.929 77.826C622.677 78.05 622.551 78.3253 622.551 78.652V78.82H621.361C621.352 78.764 621.347 78.6613 621.347 78.512C621.347 77.8587 621.618 77.3547 622.159 77C622.7 76.6453 623.424 76.468 624.329 76.468C625.244 76.468 625.939 76.6593 626.415 77.042C626.891 77.4247 627.129 77.966 627.129 78.666V82.656C627.129 82.824 627.176 82.95 627.269 83.034C627.362 83.1087 627.479 83.146 627.619 83.146H628.179V83.944C627.936 84.056 627.619 84.112 627.227 84.112C626.91 84.112 626.644 84.0187 626.429 83.832C626.214 83.636 626.07 83.3793 625.995 83.062H625.897C625.645 83.4073 625.3 83.678 624.861 83.874C624.432 84.07 623.956 84.168 623.433 84.168ZM623.755 83.146C624.119 83.146 624.464 83.0713 624.791 82.922C625.118 82.7727 625.384 82.5533 625.589 82.264C625.794 81.9653 625.897 81.606 625.897 81.186V80.654C624.693 80.654 623.788 80.752 623.181 80.948C622.584 81.1347 622.285 81.494 622.285 82.026C622.285 82.4273 622.406 82.7167 622.649 82.894C622.901 83.062 623.27 83.146 623.755 83.146ZM630.876 84.154C630.372 84.154 630.004 84.0047 629.77 83.706C629.537 83.4073 629.42 83.0387 629.42 82.6V77.658H628.524V76.636H629.434L629.7 74.592H630.652V76.636H631.898V77.658H630.652V82.488C630.652 82.9267 630.858 83.146 631.268 83.146H631.898V83.958C631.777 84.014 631.618 84.0607 631.422 84.098C631.226 84.1353 631.044 84.154 630.876 84.154ZM635.109 84.168C634.474 84.168 633.91 84.0187 633.415 83.72C632.92 83.4213 632.673 82.88 632.673 82.096C632.673 81.1533 633.093 80.5093 633.933 80.164C634.773 79.8093 635.986 79.632 637.573 79.632V78.82C637.573 78.3907 637.452 78.064 637.209 77.84C636.966 77.6067 636.528 77.49 635.893 77.49C635.296 77.49 634.866 77.602 634.605 77.826C634.353 78.05 634.227 78.3253 634.227 78.652V78.82H633.037C633.028 78.764 633.023 78.6613 633.023 78.512C633.023 77.8587 633.294 77.3547 633.835 77C634.376 76.6453 635.1 76.468 636.005 76.468C636.92 76.468 637.615 76.6593 638.091 77.042C638.567 77.4247 638.805 77.966 638.805 78.666V82.656C638.805 82.824 638.852 82.95 638.945 83.034C639.038 83.1087 639.155 83.146 639.295 83.146H639.855V83.944C639.612 84.056 639.295 84.112 638.903 84.112C638.586 84.112 638.32 84.0187 638.105 83.832C637.89 83.636 637.746 83.3793 637.671 83.062H637.573C637.321 83.4073 636.976 83.678 636.537 83.874C636.108 84.07 635.632 84.168 635.109 84.168ZM635.431 83.146C635.795 83.146 636.14 83.0713 636.467 82.922C636.794 82.7727 637.06 82.5533 637.265 82.264C637.47 81.9653 637.573 81.606 637.573 81.186V80.654C636.369 80.654 635.464 80.752 634.857 80.948C634.26 81.1347 633.961 81.494 633.961 82.026C633.961 82.4273 634.082 82.7167 634.325 82.894C634.577 83.062 634.946 83.146 635.431 83.146Z" fill="white"/>
<circle cx="601" cy="19" r="13" fill="#B20000"/>
<path d="M601.006 21.956H596.89V20.388C598.038 18.5493 598.897 16.496 599.466 14.228H601.44C601.263 14.984 600.988 15.7867 600.614 16.636C600.25 17.476 599.872 18.2367 599.48 18.918C599.098 19.5993 598.79 20.0893 598.556 20.388H601.006V18.274C601.202 17.9193 601.394 17.4947 601.58 17C601.776 16.5053 601.93 16.0573 602.042 15.656H602.924V20.388H604.072V21.956H602.924V24H601.006V21.956Z" fill="white"/>
<path d="M355.943 74.396H360.619C361.58 74.396 362.318 74.662 362.831 75.194C363.344 75.726 363.601 76.4353 363.601 77.322C363.601 78.2273 363.33 78.9553 362.789 79.506C362.257 80.0473 361.534 80.318 360.619 80.318H357.273V84H355.943V74.396ZM360.549 79.156C361.072 79.156 361.487 78.9927 361.795 78.666C362.103 78.3393 362.257 77.896 362.257 77.336C362.257 76.7667 362.112 76.328 361.823 76.02C361.534 75.712 361.109 75.558 360.549 75.558H357.273V79.156H360.549ZM365.113 73.878H366.345V77.462H366.443C366.956 76.7993 367.731 76.468 368.767 76.468C370.297 76.468 371.063 77.3033 371.063 78.974V84H369.831V79.058C369.831 78.47 369.7 78.064 369.439 77.84C369.177 77.6067 368.799 77.49 368.305 77.49C367.95 77.49 367.623 77.5787 367.325 77.756C367.026 77.924 366.788 78.1713 366.611 78.498C366.433 78.8247 366.345 79.2073 366.345 79.646V84H365.113V73.878ZM375.846 84.168C374.717 84.168 373.867 83.8553 373.298 83.23C372.729 82.5953 372.444 81.6247 372.444 80.318C372.444 79.0113 372.729 78.0453 373.298 77.42C373.867 76.7853 374.717 76.468 375.846 76.468C376.975 76.468 377.825 76.7853 378.394 77.42C378.963 78.0453 379.248 79.0113 379.248 80.318C379.248 81.6247 378.963 82.5953 378.394 83.23C377.825 83.8553 376.975 84.168 375.846 84.168ZM375.846 83.146C376.593 83.146 377.134 82.9313 377.47 82.502C377.806 82.0633 377.974 81.354 377.974 80.374V80.262C377.974 79.282 377.806 78.5773 377.47 78.148C377.134 77.7093 376.593 77.49 375.846 77.49C375.099 77.49 374.558 77.7093 374.222 78.148C373.886 78.5773 373.718 79.282 373.718 80.262V80.374C373.718 81.354 373.886 82.0633 374.222 82.502C374.558 82.9313 375.099 83.146 375.846 83.146ZM380.671 76.636H381.609L381.749 77.63H381.847C382.389 76.8553 383.215 76.468 384.325 76.468C385.063 76.468 385.627 76.6687 386.019 77.07C386.421 77.462 386.621 78.0967 386.621 78.974V84H385.389V79.058C385.389 78.47 385.259 78.064 384.997 77.84C384.736 77.6067 384.358 77.49 383.863 77.49C383.509 77.49 383.182 77.5787 382.883 77.756C382.585 77.924 382.347 78.1713 382.169 78.498C381.992 78.8247 381.903 79.2073 381.903 79.646V84H380.671V76.636ZM391.573 84.168C390.387 84.168 389.505 83.8553 388.927 83.23C388.348 82.6047 388.059 81.634 388.059 80.318C388.059 79.002 388.348 78.0313 388.927 77.406C389.505 76.7807 390.387 76.468 391.573 76.468C392.637 76.468 393.43 76.7527 393.953 77.322C394.485 77.882 394.751 78.7873 394.751 80.038V80.654H389.333C389.379 81.5033 389.58 82.1333 389.935 82.544C390.299 82.9453 390.845 83.146 391.573 83.146C392.161 83.146 392.637 83.0107 393.001 82.74C393.365 82.4693 393.547 82.054 393.547 81.494H394.751C394.751 82.3527 394.452 83.0153 393.855 83.482C393.267 83.9393 392.506 84.168 391.573 84.168ZM393.463 79.632C393.463 78.204 392.833 77.49 391.573 77.49C390.873 77.49 390.345 77.658 389.991 77.994C389.645 78.33 389.435 78.876 389.361 79.632H393.463ZM399.412 74.396H400.854L403.388 81.382L403.864 82.67H403.934L404.382 81.438L406.93 74.396H408.302L404.732 84H402.982L399.412 74.396ZM412.34 84.168C411.155 84.168 410.273 83.8553 409.694 83.23C409.116 82.6047 408.826 81.634 408.826 80.318C408.826 79.002 409.116 78.0313 409.694 77.406C410.273 76.7807 411.155 76.468 412.34 76.468C413.404 76.468 414.198 76.7527 414.72 77.322C415.252 77.882 415.518 78.7873 415.518 80.038V80.654H410.1C410.147 81.5033 410.348 82.1333 410.702 82.544C411.066 82.9453 411.612 83.146 412.34 83.146C412.928 83.146 413.404 83.0107 413.768 82.74C414.132 82.4693 414.314 82.054 414.314 81.494H415.518C415.518 82.3527 415.22 83.0153 414.622 83.482C414.034 83.9393 413.274 84.168 412.34 84.168ZM414.23 79.632C414.23 78.204 413.6 77.49 412.34 77.49C411.64 77.49 411.113 77.658 410.758 77.994C410.413 78.33 410.203 78.876 410.128 79.632H414.23ZM416.998 76.636H417.936L418.076 77.742H418.16C418.3 77.378 418.51 77.0747 418.79 76.832C419.07 76.5893 419.438 76.468 419.896 76.468C420.148 76.468 420.367 76.5053 420.554 76.58V77.77H420.036C419.513 77.77 419.079 77.924 418.734 78.232C418.398 78.5307 418.23 79.002 418.23 79.646V84H416.998V76.636ZM421.66 73.878H422.878V75.208H421.66V73.878ZM421.66 76.636H422.892V84H421.66V76.636ZM425.029 77.658H423.951V76.636H425.029V75.46C425.029 74.9747 425.151 74.5733 425.393 74.256C425.636 73.9293 426.047 73.766 426.625 73.766C426.812 73.766 426.999 73.7847 427.185 73.822C427.381 73.85 427.545 73.8873 427.675 73.934V74.788H426.947C426.49 74.788 426.261 75.012 426.261 75.46V76.636H427.675V77.658H426.261V84H425.029V77.658ZM428.655 73.878H429.887V75.25H428.655V73.878ZM428.655 76.636H429.887V84H428.655V76.636ZM434.563 84.168C433.443 84.168 432.622 83.86 432.099 83.244C431.577 82.6187 431.315 81.6433 431.315 80.318C431.315 79.002 431.577 78.0313 432.099 77.406C432.631 76.7807 433.453 76.468 434.563 76.468C435.571 76.468 436.309 76.7107 436.775 77.196C437.242 77.6813 437.475 78.4047 437.475 79.366H436.215C436.215 78.7033 436.094 78.2273 435.851 77.938C435.618 77.6393 435.189 77.49 434.563 77.49C433.882 77.49 433.383 77.714 433.065 78.162C432.748 78.6007 432.589 79.3193 432.589 80.318V80.374C432.589 81.3633 432.743 82.0727 433.051 82.502C433.359 82.9313 433.863 83.146 434.563 83.146C435.179 83.146 435.618 82.992 435.879 82.684C436.15 82.3667 436.285 81.8953 436.285 81.27H437.475C437.475 82.11 437.237 82.8053 436.761 83.356C436.285 83.8973 435.553 84.168 434.563 84.168ZM440.765 84.168C440.131 84.168 439.566 84.0187 439.071 83.72C438.577 83.4213 438.329 82.88 438.329 82.096C438.329 81.1533 438.749 80.5093 439.589 80.164C440.429 79.8093 441.643 79.632 443.229 79.632V78.82C443.229 78.3907 443.108 78.064 442.865 77.84C442.623 77.6067 442.184 77.49 441.549 77.49C440.952 77.49 440.523 77.602 440.261 77.826C440.009 78.05 439.883 78.3253 439.883 78.652V78.82H438.693C438.684 78.764 438.679 78.6613 438.679 78.512C438.679 77.8587 438.95 77.3547 439.491 77C440.033 76.6453 440.756 76.468 441.661 76.468C442.576 76.468 443.271 76.6593 443.747 77.042C444.223 77.4247 444.461 77.966 444.461 78.666V82.656C444.461 82.824 444.508 82.95 444.601 83.034C444.695 83.1087 444.811 83.146 444.951 83.146H445.511V83.944C445.269 84.056 444.951 84.112 444.559 84.112C444.242 84.112 443.976 84.0187 443.761 83.832C443.547 83.636 443.402 83.3793 443.327 83.062H443.229C442.977 83.4073 442.632 83.678 442.193 83.874C441.764 84.07 441.288 84.168 440.765 84.168ZM441.087 83.146C441.451 83.146 441.797 83.0713 442.123 82.922C442.45 82.7727 442.716 82.5533 442.921 82.264C443.127 81.9653 443.229 81.606 443.229 81.186V80.654C442.025 80.654 441.12 80.752 440.513 80.948C439.916 81.1347 439.617 81.494 439.617 82.026C439.617 82.4273 439.739 82.7167 439.981 82.894C440.233 83.062 440.602 83.146 441.087 83.146ZM448.208 84.154C447.704 84.154 447.336 84.0047 447.102 83.706C446.869 83.4073 446.752 83.0387 446.752 82.6V77.658H445.856V76.636H446.766L447.032 74.592H447.984V76.636H449.23V77.658H447.984V82.488C447.984 82.9267 448.19 83.146 448.6 83.146H449.23V83.958C449.109 84.014 448.95 84.0607 448.754 84.098C448.558 84.1353 448.376 84.154 448.208 84.154ZM450.439 73.878H451.657V75.208H450.439V73.878ZM450.439 76.636H451.671V84H450.439V76.636ZM456.496 84.168C455.367 84.168 454.518 83.8553 453.948 83.23C453.379 82.5953 453.094 81.6247 453.094 80.318C453.094 79.0113 453.379 78.0453 453.948 77.42C454.518 76.7853 455.367 76.468 456.496 76.468C457.626 76.468 458.475 76.7853 459.044 77.42C459.614 78.0453 459.898 79.0113 459.898 80.318C459.898 81.6247 459.614 82.5953 459.044 83.23C458.475 83.8553 457.626 84.168 456.496 84.168ZM456.496 83.146C457.243 83.146 457.784 82.9313 458.12 82.502C458.456 82.0633 458.624 81.354 458.624 80.374V80.262C458.624 79.282 458.456 78.5773 458.12 78.148C457.784 77.7093 457.243 77.49 456.496 77.49C455.75 77.49 455.208 77.7093 454.872 78.148C454.536 78.5773 454.368 79.282 454.368 80.262V80.374C454.368 81.354 454.536 82.0633 454.872 82.502C455.208 82.9313 455.75 83.146 456.496 83.146ZM461.322 76.636H462.26L462.4 77.63H462.498C463.039 76.8553 463.865 76.468 464.976 76.468C465.713 76.468 466.278 76.6687 466.67 77.07C467.071 77.462 467.272 78.0967 467.272 78.974V84H466.04V79.058C466.04 78.47 465.909 78.064 465.648 77.84C465.386 77.6067 465.008 77.49 464.514 77.49C464.159 77.49 463.832 77.5787 463.534 77.756C463.235 77.924 462.997 78.1713 462.82 78.498C462.642 78.8247 462.554 79.2073 462.554 79.646V84H461.322V76.636Z" fill="white"/>
<circle cx="412" cy="20" r="13" fill="#B20000"/>
<path d="M412.53 25.168C411.429 25.168 410.58 24.9113 409.982 24.398C409.385 23.8753 409.086 23.1707 409.086 22.284V22.032H411.032V22.326C411.032 22.7367 411.158 23.054 411.41 23.278C411.662 23.4927 412.026 23.6 412.502 23.6C412.932 23.6 413.272 23.4927 413.524 23.278C413.776 23.054 413.902 22.7227 413.902 22.284C413.902 21.7707 413.762 21.4113 413.482 21.206C413.202 21.0007 412.829 20.898 412.362 20.898H411.648V19.33H412.404C412.787 19.33 413.1 19.218 413.342 18.994C413.585 18.7607 413.706 18.4247 413.706 17.986C413.706 17.5847 413.599 17.286 413.384 17.09C413.179 16.894 412.885 16.796 412.502 16.796C412.101 16.796 411.788 16.8987 411.564 17.104C411.34 17.3 411.228 17.594 411.228 17.986V18.252H409.282V17.86C409.282 17.3373 409.418 16.88 409.688 16.488C409.959 16.0867 410.332 15.7787 410.808 15.564C411.294 15.34 411.844 15.228 412.46 15.228C413.44 15.228 414.22 15.4567 414.798 15.914C415.386 16.3713 415.68 17.02 415.68 17.86C415.68 18.392 415.545 18.8307 415.274 19.176C415.013 19.512 414.644 19.792 414.168 20.016V20.072C414.691 20.2307 415.106 20.5107 415.414 20.912C415.722 21.3133 415.876 21.8173 415.876 22.424C415.876 22.984 415.732 23.474 415.442 23.894C415.162 24.3047 414.77 24.622 414.266 24.846C413.762 25.0607 413.184 25.168 412.53 25.168Z" fill="white"/>
<path d="M714.972 84.168C713.806 84.168 712.854 83.9347 712.116 83.468C711.379 83.0013 711.01 82.2733 711.01 81.284L711.024 81.004H712.34C712.322 81.1347 712.312 81.2327 712.312 81.298C712.312 81.8673 712.546 82.3013 713.012 82.6C713.488 82.8893 714.118 83.034 714.902 83.034C715.78 83.034 716.452 82.8987 716.918 82.628C717.385 82.348 717.618 81.9513 717.618 81.438C717.618 81.0927 717.497 80.808 717.254 80.584C717.012 80.3507 716.704 80.1687 716.33 80.038C715.966 79.9073 715.472 79.7627 714.846 79.604C714.072 79.408 713.446 79.2213 712.97 79.044C712.494 78.8573 712.088 78.5867 711.752 78.232C711.416 77.868 711.248 77.392 711.248 76.804C711.248 75.964 711.598 75.3247 712.298 74.886C712.998 74.4473 713.894 74.228 714.986 74.228C716.078 74.228 716.965 74.452 717.646 74.9C718.328 75.3387 718.668 76.0153 718.668 76.93V77.098H717.366V76.888C717.366 76.412 717.147 76.0387 716.708 75.768C716.279 75.4973 715.719 75.362 715.028 75.362C714.291 75.362 713.698 75.474 713.25 75.698C712.812 75.922 712.592 76.258 712.592 76.706C712.592 77.0327 712.709 77.2987 712.942 77.504C713.185 77.7093 713.479 77.8773 713.824 78.008C714.179 78.1293 714.669 78.2693 715.294 78.428C716.069 78.624 716.699 78.8153 717.184 79.002C717.679 79.1887 718.094 79.464 718.43 79.828C718.776 80.1827 718.948 80.6493 718.948 81.228C718.948 82.2547 718.589 83.0013 717.87 83.468C717.161 83.9347 716.195 84.168 714.972 84.168ZM723.554 84.168C722.425 84.168 721.575 83.8553 721.006 83.23C720.437 82.5953 720.152 81.6247 720.152 80.318C720.152 79.0113 720.437 78.0453 721.006 77.42C721.575 76.7853 722.425 76.468 723.554 76.468C724.683 76.468 725.533 76.7853 726.102 77.42C726.671 78.0453 726.956 79.0113 726.956 80.318C726.956 81.6247 726.671 82.5953 726.102 83.23C725.533 83.8553 724.683 84.168 723.554 84.168ZM723.554 83.146C724.301 83.146 724.842 82.9313 725.178 82.502C725.514 82.0633 725.682 81.354 725.682 80.374V80.262C725.682 79.282 725.514 78.5773 725.178 78.148C724.842 77.7093 724.301 77.49 723.554 77.49C722.807 77.49 722.266 77.7093 721.93 78.148C721.594 78.5773 721.426 79.282 721.426 80.262V80.374C721.426 81.354 721.594 82.0633 721.93 82.502C722.266 82.9313 722.807 83.146 723.554 83.146ZM731.179 84.168C730.059 84.168 729.238 83.86 728.715 83.244C728.193 82.6187 727.931 81.6433 727.931 80.318C727.931 79.002 728.193 78.0313 728.715 77.406C729.247 76.7807 730.069 76.468 731.179 76.468C732.187 76.468 732.925 76.7107 733.391 77.196C733.858 77.6813 734.091 78.4047 734.091 79.366H732.831C732.831 78.7033 732.71 78.2273 732.467 77.938C732.234 77.6393 731.805 77.49 731.179 77.49C730.498 77.49 729.999 77.714 729.681 78.162C729.364 78.6007 729.205 79.3193 729.205 80.318V80.374C729.205 81.3633 729.359 82.0727 729.667 82.502C729.975 82.9313 730.479 83.146 731.179 83.146C731.795 83.146 732.234 82.992 732.495 82.684C732.766 82.3667 732.901 81.8953 732.901 81.27H734.091C734.091 82.11 733.853 82.8053 733.377 83.356C732.901 83.8973 732.169 84.168 731.179 84.168ZM735.379 73.878H736.597V75.208H735.379V73.878ZM735.379 76.636H736.611V84H735.379V76.636ZM740.485 84.168C739.85 84.168 739.286 84.0187 738.791 83.72C738.296 83.4213 738.049 82.88 738.049 82.096C738.049 81.1533 738.469 80.5093 739.309 80.164C740.149 79.8093 741.362 79.632 742.949 79.632V78.82C742.949 78.3907 742.828 78.064 742.585 77.84C742.342 77.6067 741.904 77.49 741.269 77.49C740.672 77.49 740.242 77.602 739.981 77.826C739.729 78.05 739.603 78.3253 739.603 78.652V78.82H738.413C738.404 78.764 738.399 78.6613 738.399 78.512C738.399 77.8587 738.67 77.3547 739.211 77C739.752 76.6453 740.476 76.468 741.381 76.468C742.296 76.468 742.991 76.6593 743.467 77.042C743.943 77.4247 744.181 77.966 744.181 78.666V82.656C744.181 82.824 744.228 82.95 744.321 83.034C744.414 83.1087 744.531 83.146 744.671 83.146H745.231V83.944C744.988 84.056 744.671 84.112 744.279 84.112C743.962 84.112 743.696 84.0187 743.481 83.832C743.266 83.636 743.122 83.3793 743.047 83.062H742.949C742.697 83.4073 742.352 83.678 741.913 83.874C741.484 84.07 741.008 84.168 740.485 84.168ZM740.807 83.146C741.171 83.146 741.516 83.0713 741.843 82.922C742.17 82.7727 742.436 82.5533 742.641 82.264C742.846 81.9653 742.949 81.606 742.949 81.186V80.654C741.745 80.654 740.84 80.752 740.233 80.948C739.636 81.1347 739.337 81.494 739.337 82.026C739.337 82.4273 739.458 82.7167 739.701 82.894C739.953 83.062 740.322 83.146 740.807 83.146ZM746.262 73.878H747.494V84H746.262V73.878ZM753.43 74.396H755.404L757.7 80.948C757.831 81.3213 757.976 81.802 758.134 82.39H758.19C758.358 81.7367 758.498 81.256 758.61 80.948L760.92 74.396H762.88V84H761.55V77.658L761.578 75.866H761.48C761.406 76.2487 761.326 76.5567 761.242 76.79L758.638 84H757.532L754.97 76.79C754.896 76.594 754.816 76.286 754.732 75.866H754.648L754.676 77.658V84H753.43V74.396ZM768.046 84.168C766.861 84.168 765.979 83.8553 765.4 83.23C764.822 82.6047 764.532 81.634 764.532 80.318C764.532 79.002 764.822 78.0313 765.4 77.406C765.979 76.7807 766.861 76.468 768.046 76.468C769.11 76.468 769.904 76.7527 770.426 77.322C770.958 77.882 771.224 78.7873 771.224 80.038V80.654H765.806C765.853 81.5033 766.054 82.1333 766.408 82.544C766.772 82.9453 767.318 83.146 768.046 83.146C768.634 83.146 769.11 83.0107 769.474 82.74C769.838 82.4693 770.02 82.054 770.02 81.494H771.224C771.224 82.3527 770.926 83.0153 770.328 83.482C769.74 83.9393 768.98 84.168 768.046 84.168ZM769.936 79.632C769.936 78.204 769.306 77.49 768.046 77.49C767.346 77.49 766.819 77.658 766.464 77.994C766.119 78.33 765.909 78.876 765.834 79.632H769.936ZM775.168 84.168C774.234 84.168 773.516 83.8553 773.012 83.23C772.508 82.6047 772.256 81.634 772.256 80.318C772.256 79.03 772.503 78.0687 772.998 77.434C773.502 76.79 774.188 76.468 775.056 76.468C775.578 76.468 776.022 76.5473 776.386 76.706C776.75 76.8647 777.053 77.1213 777.296 77.476H777.38V73.878H778.612V84H777.688L777.534 83.006H777.45C777.207 83.3887 776.885 83.678 776.484 83.874C776.092 84.07 775.653 84.168 775.168 84.168ZM775.476 83.146C776.138 83.146 776.619 82.9127 776.918 82.446C777.226 81.9793 777.38 81.2887 777.38 80.374V80.318C777.38 79.3847 777.226 78.68 776.918 78.204C776.61 77.728 776.129 77.49 775.476 77.49C775.009 77.49 774.631 77.5833 774.342 77.77C774.062 77.9473 773.856 78.2413 773.726 78.652C773.595 79.0627 773.53 79.618 773.53 80.318V80.374C773.53 81.0647 773.595 81.6107 773.726 82.012C773.856 82.4133 774.062 82.7027 774.342 82.88C774.622 83.0573 775 83.146 775.476 83.146ZM780.483 73.878H781.701V75.208H780.483V73.878ZM780.483 76.636H781.715V84H780.483V76.636ZM785.588 84.168C784.954 84.168 784.389 84.0187 783.894 83.72C783.4 83.4213 783.152 82.88 783.152 82.096C783.152 81.1533 783.572 80.5093 784.412 80.164C785.252 79.8093 786.466 79.632 788.052 79.632V78.82C788.052 78.3907 787.931 78.064 787.688 77.84C787.446 77.6067 787.007 77.49 786.372 77.49C785.775 77.49 785.346 77.602 785.084 77.826C784.832 78.05 784.706 78.3253 784.706 78.652V78.82H783.516C783.507 78.764 783.502 78.6613 783.502 78.512C783.502 77.8587 783.773 77.3547 784.314 77C784.856 76.6453 785.579 76.468 786.484 76.468C787.399 76.468 788.094 76.6593 788.57 77.042C789.046 77.4247 789.284 77.966 789.284 78.666V82.656C789.284 82.824 789.331 82.95 789.424 83.034C789.518 83.1087 789.634 83.146 789.774 83.146H790.334V83.944C790.092 84.056 789.774 84.112 789.382 84.112C789.065 84.112 788.799 84.0187 788.584 83.832C788.37 83.636 788.225 83.3793 788.15 83.062H788.052C787.8 83.4073 787.455 83.678 787.016 83.874C786.587 84.07 786.111 84.168 785.588 84.168ZM785.91 83.146C786.274 83.146 786.62 83.0713 786.946 82.922C787.273 82.7727 787.539 82.5533 787.744 82.264C787.95 81.9653 788.052 81.606 788.052 81.186V80.654C786.848 80.654 785.943 80.752 785.336 80.948C784.739 81.1347 784.44 81.494 784.44 82.026C784.44 82.4273 784.562 82.7167 784.804 82.894C785.056 83.062 785.425 83.146 785.91 83.146ZM798.132 84.182C797.554 84.182 797.022 84.0747 796.536 83.86C796.051 83.636 795.664 83.3187 795.374 82.908C795.094 82.4973 794.954 82.012 794.954 81.452C794.954 80.78 795.141 80.192 795.514 79.688C795.897 79.1747 796.392 78.7733 796.998 78.484C796.541 77.924 796.312 77.2987 796.312 76.608C796.312 76.1413 796.42 75.726 796.634 75.362C796.858 74.998 797.162 74.718 797.544 74.522C797.927 74.3167 798.356 74.214 798.832 74.214C799.476 74.214 800.013 74.4007 800.442 74.774C800.881 75.138 801.1 75.6327 801.1 76.258C801.1 76.9113 800.895 77.4527 800.484 77.882C800.074 78.302 799.556 78.638 798.93 78.89L801.128 81.312C801.446 80.6773 801.604 79.968 801.604 79.184H802.766C802.766 80.3133 802.486 81.312 801.926 82.18L803.578 84H801.982L801.142 83.076C800.75 83.4307 800.298 83.706 799.784 83.902C799.28 84.0887 798.73 84.182 798.132 84.182ZM798.174 78.078C798.706 77.8633 799.122 77.6253 799.42 77.364C799.719 77.1027 799.868 76.7667 799.868 76.356C799.868 76.0107 799.756 75.74 799.532 75.544C799.318 75.348 799.061 75.25 798.762 75.25C798.436 75.25 798.151 75.362 797.908 75.586C797.666 75.81 797.544 76.1273 797.544 76.538C797.544 77.126 797.754 77.6393 798.174 78.078ZM798.244 83.16C799.103 83.16 799.836 82.8707 800.442 82.292L797.74 79.31C797.264 79.5247 796.886 79.8187 796.606 80.192C796.336 80.556 796.2 80.9667 796.2 81.424C796.2 81.9653 796.392 82.39 796.774 82.698C797.166 83.006 797.656 83.16 798.244 83.16ZM808.665 74.396H813.341C814.302 74.396 815.039 74.662 815.553 75.194C816.066 75.726 816.323 76.4353 816.323 77.322C816.323 78.2273 816.052 78.9553 815.511 79.506C814.979 80.0473 814.255 80.318 813.341 80.318H809.995V84H808.665V74.396ZM813.271 79.156C813.793 79.156 814.209 78.9927 814.517 78.666C814.825 78.3393 814.979 77.896 814.979 77.336C814.979 76.7667 814.834 76.328 814.545 76.02C814.255 75.712 813.831 75.558 813.271 75.558H809.995V79.156H813.271ZM820.788 84.168C819.659 84.168 818.81 83.8553 818.24 83.23C817.671 82.5953 817.386 81.6247 817.386 80.318C817.386 79.0113 817.671 78.0453 818.24 77.42C818.81 76.7853 819.659 76.468 820.788 76.468C821.918 76.468 822.767 76.7853 823.336 77.42C823.906 78.0453 824.19 79.0113 824.19 80.318C824.19 81.6247 823.906 82.5953 823.336 83.23C822.767 83.8553 821.918 84.168 820.788 84.168ZM820.788 83.146C821.535 83.146 822.076 82.9313 822.412 82.502C822.748 82.0633 822.916 81.354 822.916 80.374V80.262C822.916 79.282 822.748 78.5773 822.412 78.148C822.076 77.7093 821.535 77.49 820.788 77.49C820.042 77.49 819.5 77.7093 819.164 78.148C818.828 78.5773 818.66 79.282 818.66 80.262V80.374C818.66 81.354 818.828 82.0633 819.164 82.502C819.5 82.9313 820.042 83.146 820.788 83.146ZM825.614 76.636H826.552L826.692 77.742H826.776C826.916 77.378 827.126 77.0747 827.406 76.832C827.686 76.5893 828.054 76.468 828.512 76.468C828.764 76.468 828.983 76.5053 829.17 76.58V77.77H828.652C828.129 77.77 827.695 77.924 827.35 78.232C827.014 78.5307 826.846 79.002 826.846 79.646V84H825.614V76.636ZM831.942 84.154C831.438 84.154 831.069 84.0047 830.836 83.706C830.603 83.4073 830.486 83.0387 830.486 82.6V77.658H829.59V76.636H830.5L830.766 74.592H831.718V76.636H832.964V77.658H831.718V82.488C831.718 82.9267 831.923 83.146 832.334 83.146H832.964V83.958C832.843 84.014 832.684 84.0607 832.488 84.098C832.292 84.1353 832.11 84.154 831.942 84.154ZM837.126 84.168C835.997 84.168 835.148 83.8553 834.578 83.23C834.009 82.5953 833.724 81.6247 833.724 80.318C833.724 79.0113 834.009 78.0453 834.578 77.42C835.148 76.7853 835.997 76.468 837.126 76.468C838.256 76.468 839.105 76.7853 839.674 77.42C840.244 78.0453 840.528 79.0113 840.528 80.318C840.528 81.6247 840.244 82.5953 839.674 83.23C839.105 83.8553 838.256 84.168 837.126 84.168ZM837.126 83.146C837.873 83.146 838.414 82.9313 838.75 82.502C839.086 82.0633 839.254 81.354 839.254 80.374V80.262C839.254 79.282 839.086 78.5773 838.75 78.148C838.414 77.7093 837.873 77.49 837.126 77.49C836.38 77.49 835.838 77.7093 835.502 78.148C835.166 78.5773 834.998 79.282 834.998 80.262V80.374C834.998 81.354 835.166 82.0633 835.502 82.502C835.838 82.9313 836.38 83.146 837.126 83.146ZM842.218 77.658H841.14V76.636H842.218V75.46C842.218 74.9747 842.339 74.5733 842.582 74.256C842.824 73.9293 843.235 73.766 843.814 73.766C844 73.766 844.187 73.7847 844.374 73.822C844.57 73.85 844.733 73.8873 844.864 73.934V74.788H844.136C843.678 74.788 843.45 75.012 843.45 75.46V76.636H844.864V77.658H843.45V84H842.218V77.658ZM848.802 84.168C847.673 84.168 846.823 83.8553 846.254 83.23C845.685 82.5953 845.4 81.6247 845.4 80.318C845.4 79.0113 845.685 78.0453 846.254 77.42C846.823 76.7853 847.673 76.468 848.802 76.468C849.931 76.468 850.781 76.7853 851.35 77.42C851.919 78.0453 852.204 79.0113 852.204 80.318C852.204 81.6247 851.919 82.5953 851.35 83.23C850.781 83.8553 849.931 84.168 848.802 84.168ZM848.802 83.146C849.549 83.146 850.09 82.9313 850.426 82.502C850.762 82.0633 850.93 81.354 850.93 80.374V80.262C850.93 79.282 850.762 78.5773 850.426 78.148C850.09 77.7093 849.549 77.49 848.802 77.49C848.055 77.49 847.514 77.7093 847.178 78.148C846.842 78.5773 846.674 79.282 846.674 80.262V80.374C846.674 81.354 846.842 82.0633 847.178 82.502C847.514 82.9313 848.055 83.146 848.802 83.146ZM853.627 73.878H854.859V84H853.627V73.878ZM856.731 73.878H857.949V75.208H856.731V73.878ZM856.731 76.636H857.963V84H856.731V76.636ZM862.788 84.168C861.659 84.168 860.81 83.8553 860.24 83.23C859.671 82.5953 859.386 81.6247 859.386 80.318C859.386 79.0113 859.671 78.0453 860.24 77.42C860.81 76.7853 861.659 76.468 862.788 76.468C863.918 76.468 864.767 76.7853 865.336 77.42C865.906 78.0453 866.19 79.0113 866.19 80.318C866.19 81.6247 865.906 82.5953 865.336 83.23C864.767 83.8553 863.918 84.168 862.788 84.168ZM862.788 83.146C863.535 83.146 864.076 82.9313 864.412 82.502C864.748 82.0633 864.916 81.354 864.916 80.374V80.262C864.916 79.282 864.748 78.5773 864.412 78.148C864.076 77.7093 863.535 77.49 862.788 77.49C862.042 77.49 861.5 77.7093 861.164 78.148C860.828 78.5773 860.66 79.282 860.66 80.262V80.374C860.66 81.354 860.828 82.0633 861.164 82.502C861.5 82.9313 862.042 83.146 862.788 83.146Z" fill="white"/>
<circle cx="788" cy="18" r="13" fill="#152A61"/>
<path d="M788.488 24.168C787.462 24.168 786.64 23.888 786.024 23.328C785.418 22.7587 785.114 21.9887 785.114 21.018H787.088C787.088 21.5127 787.21 21.9 787.452 22.18C787.704 22.46 788.05 22.6 788.488 22.6C788.918 22.6 789.254 22.4553 789.496 22.166C789.748 21.8673 789.874 21.4333 789.874 20.864C789.874 20.3413 789.748 19.9447 789.496 19.674C789.244 19.4033 788.913 19.268 788.502 19.268C788.222 19.268 787.984 19.3287 787.788 19.45C787.592 19.5713 787.415 19.7347 787.256 19.94L785.436 19.716L785.814 14.396H791.372V16.104H787.508L787.382 18.232C787.606 18.092 787.849 17.98 788.11 17.896C788.372 17.8027 788.689 17.756 789.062 17.756C789.884 17.756 790.551 18.022 791.064 18.554C791.587 19.0767 791.848 19.8467 791.848 20.864C791.848 21.9093 791.55 22.7213 790.952 23.3C790.355 23.8787 789.534 24.168 788.488 24.168Z" fill="white"/>
<path d="M956.944 74.396H963.748V75.558H958.274V78.61H963.244V79.772H958.274V84H956.944V74.396ZM965.334 73.878H966.552V75.208H965.334V73.878ZM965.334 76.636H966.566V84H965.334V76.636ZM968.438 76.636H969.376L969.516 77.63H969.614C970.155 76.8553 970.981 76.468 972.092 76.468C972.829 76.468 973.394 76.6687 973.786 77.07C974.187 77.462 974.388 78.0967 974.388 78.974V84H973.156V79.058C973.156 78.47 973.025 78.064 972.764 77.84C972.503 77.6067 972.125 77.49 971.63 77.49C971.275 77.49 970.949 77.5787 970.65 77.756C970.351 77.924 970.113 78.1713 969.936 78.498C969.759 78.8247 969.67 79.2073 969.67 79.646V84H968.438V76.636ZM976.217 73.878H977.435V75.208H976.217V73.878ZM976.217 76.636H977.449V84H976.217V76.636ZM981.841 84.168C981.159 84.168 980.59 84.07 980.133 83.874C979.685 83.6687 979.353 83.4027 979.139 83.076C978.924 82.7493 978.817 82.3947 978.817 82.012C978.817 81.9 978.817 81.8253 978.817 81.788C978.826 81.7413 978.831 81.7133 978.831 81.704H980.049V81.844C980.049 82.2827 980.221 82.614 980.567 82.838C980.912 83.0527 981.36 83.16 981.911 83.16C982.387 83.16 982.779 83.0667 983.087 82.88C983.404 82.684 983.563 82.4133 983.563 82.068C983.563 81.7973 983.474 81.578 983.297 81.41C983.119 81.2327 982.9 81.0973 982.639 81.004C982.377 80.9013 982.023 80.794 981.575 80.682C981.033 80.542 980.59 80.402 980.245 80.262C979.909 80.122 979.619 79.9167 979.377 79.646C979.143 79.366 979.027 79.0067 979.027 78.568C979.027 77.924 979.288 77.4153 979.811 77.042C980.343 76.6593 981.057 76.468 981.953 76.468C982.513 76.468 982.998 76.5613 983.409 76.748C983.819 76.9253 984.127 77.168 984.333 77.476C984.547 77.7747 984.655 78.1107 984.655 78.484L984.641 78.75H983.437V78.624C983.437 78.2973 983.306 78.0267 983.045 77.812C982.793 77.5973 982.382 77.49 981.813 77.49C981.253 77.49 980.861 77.5927 980.637 77.798C980.413 77.994 980.301 78.2227 980.301 78.484C980.301 78.6987 980.38 78.876 980.539 79.016C980.697 79.156 980.893 79.268 981.127 79.352C981.36 79.436 981.687 79.5293 982.107 79.632C982.685 79.7813 983.157 79.9307 983.521 80.08C983.885 80.22 984.193 80.4393 984.445 80.738C984.706 81.0273 984.837 81.4147 984.837 81.9C984.837 82.656 984.561 83.2253 984.011 83.608C983.469 83.9813 982.746 84.168 981.841 84.168ZM986.321 73.878H987.553V77.462H987.651C988.164 76.7993 988.939 76.468 989.975 76.468C991.505 76.468 992.271 77.3033 992.271 78.974V84H991.039V79.058C991.039 78.47 990.908 78.064 990.647 77.84C990.385 77.6067 990.007 77.49 989.513 77.49C989.158 77.49 988.831 77.5787 988.533 77.756C988.234 77.924 987.996 78.1713 987.819 78.498C987.641 78.8247 987.553 79.2073 987.553 79.646V84H986.321V73.878Z" fill="white"/>
<circle cx="976" cy="18" r="13" fill="#152A61"/>
<path d="M975.74 23.168C974.574 23.168 973.692 22.8133 973.094 22.104C972.497 21.3853 972.198 20.1767 972.198 18.478C972.198 17.1807 972.334 16.1447 972.604 15.37C972.875 14.5953 973.262 14.0447 973.766 13.718C974.27 13.3913 974.9 13.228 975.656 13.228C976.664 13.228 977.416 13.5033 977.91 14.054C978.414 14.6047 978.666 15.3327 978.666 16.238H976.72C976.72 15.762 976.632 15.4027 976.454 15.16C976.277 14.908 975.988 14.782 975.586 14.782C975.185 14.782 974.882 14.894 974.676 15.118C974.48 15.3327 974.35 15.636 974.284 16.028C974.219 16.42 974.182 16.9473 974.172 17.61C974.396 17.3953 974.676 17.218 975.012 17.078C975.358 16.9287 975.731 16.854 976.132 16.854C977.084 16.854 977.794 17.1387 978.26 17.708C978.736 18.2773 978.974 19.0427 978.974 20.004C978.974 20.6387 978.834 21.1987 978.554 21.684C978.274 22.16 977.887 22.5287 977.392 22.79C976.907 23.042 976.356 23.168 975.74 23.168ZM975.656 21.6C976.104 21.6 976.44 21.4553 976.664 21.166C976.888 20.8673 977 20.48 977 20.004C977 19.5 976.888 19.1033 976.664 18.814C976.44 18.5247 976.104 18.38 975.656 18.38C975.208 18.38 974.868 18.5247 974.634 18.814C974.401 19.1033 974.284 19.5 974.284 20.004C974.284 20.48 974.401 20.8673 974.634 21.166C974.868 21.4553 975.208 21.6 975.656 21.6Z" fill="white"/>
</svg>
